<?xml version="1.0" encoding="utf-8"?><svg width="444.75" height="236.5" viewBox="33.75 130.25 444.75 236.5" preserveAspectRatio="xMidYMid meet" xmlns="http://www.w3.org/2000/svg"><path fill="#010101" transform="scale(0.666667 0.666667)" d="M663.503 460.161C663.366 457.266 663.816 454.359 664.501 451.557C673.108 450.98 681.849 451.341 690.476 451.449C692.819 451.478 697.317 451.011 699.429 452.028C700.025 452.316 700.05 453.105 700.237 453.694L700.528 453.72L701.532 453.955C701.769 454.969 702.091 455.989 702.03 457.038L702.75 456.462C705.787 456.482 708.418 457.072 710.603 459.342C712.265 461.068 712.951 462.89 712.853 465.291C712.733 468.217 710.705 470.701 708.562 472.517C705.786 474.871 701.804 474.717 698.367 474.786C699.553 472.688 700.669 470.737 701.394 468.429L702.116 466.153C700.789 467.554 699.575 469.487 698.221 470.757C697.055 473.692 696.011 476.689 694.124 479.25C690.983 483.513 686.966 486.995 682.199 489.349L678.312 487.539C669.597 483.097 663.683 472.996 660.727 464.043C661.671 463.852 662.268 463.798 662.998 463.123L663.184 462.562L663.559 462.188L663.503 460.161Z" /><path fill="#FDFDFD" transform="scale(0.666667 0.666667)" d="M700.237 453.694L700.528 453.72L701.532 453.955C701.769 454.969 702.091 455.989 702.03 457.038L701.642 466.73L670.682 466.988C668.234 463.145 667.824 458.505 668.276 454.061C675.355 453.697 682.555 453.963 689.647 453.987C692.984 453.998 696.562 454.266 699.86 453.758L700.237 453.694Z" /><path fill="#FD5014" transform="scale(0.666667 0.666667)" d="M663.503 460.161C663.91 463.456 664.832 468.21 667.779 470.231C670.103 471.825 693.501 470.485 698.221 470.757C697.055 473.692 696.011 476.689 694.124 479.25C690.983 483.513 686.966 486.995 682.199 489.349L678.312 487.539C669.597 483.097 663.683 472.996 660.727 464.043C661.671 463.852 662.268 463.798 662.998 463.123L663.184 462.562L663.559 462.188L663.503 460.161Z" /><path fill="#FDFDFD" transform="scale(0.666667 0.666667)" d="M79.2096 382.295L78.7442 381.922C79.1414 381.513 79.3313 381.341 79.8769 381.094L81 380.625C81.7744 380.201 81.884 379.971 82.8175 379.904L83.4375 379.875C84.2265 379.211 84.8372 378.996 85.875 379.033L86.4375 379.125C87.191 378.802 86.9158 378.846 87.6504 378.779L88.125 378.75C88.4142 377.899 88.7903 377.896 89.5312 377.439L90.0938 377.439C90.5367 376.702 90.6924 376.74 90.5644 375.844L89.4375 375.75C88.469 375.944 87.8934 376.288 86.8184 376.183L86.4375 376.125C85.9509 376.445 85.6122 376.677 85.0312 376.793C83.3942 377.12 81.5792 378.139 80.25 379.125L79.7812 379.498L79.3125 379.5L78.2812 380.623L77.8106 380.531C79.4315 378.172 83.9517 376.272 86.6989 375.721L87.3098 375.605C93.2828 374.422 98.6444 375.342 104.543 376.342L105.03 376.54C113.399 380.026 120.385 387.805 123.709 396.188C124.905 399.204 125.349 402.369 125.771 405.562C141.516 405.85 157.329 405.718 173.085 405.834C177.39 405.866 192.918 405.317 195.836 406.87L130.094 407.219C125.772 405.986 120.234 406.71 115.772 406.885C115.693 409.002 115.725 411.244 115.36 413.331C114.203 419.943 110.048 426.267 105.181 430.766C99.6464 435.882 92.9265 437.509 85.5569 437.154L83.4064 436.965C80.9546 435.117 75.3498 430.383 74.8578 427.329L74.7789 427.148C73.3807 425.605 71.0858 424.449 70.5931 422.252L70.9688 422.439C71.1162 423.111 71.274 423.226 71.8008 423.716L72.7903 424.662C73.6581 425.617 74.1278 425.739 75.1875 426.375C75.6111 426.629 75.7461 426.95 76.2715 427.213L76.875 427.5C77.5939 427.876 78.1972 428.212 78.9727 428.461C80.2548 428.872 81.1108 429.314 82.5 429.375L82.875 429L82.3163 428.062L81.9375 428.059C81.1942 427.568 80.749 427.19 79.834 427.119L79.3125 427.125L78.75 426.562C78.1055 426.489 77.8507 426.437 77.3262 426.018C76.9754 425.737 76.6277 425.362 76.2188 425.156C74.4944 424.289 73.0073 422.412 71.6269 421.031C71.4906 420.23 71.4595 420.645 71.8057 419.795C68.1836 413.372 66.5153 407.684 67.5993 400.223C68.7221 392.495 73.1603 386.904 79.2096 382.295Z" /><path fill="#010101" transform="scale(0.666667 0.666667)" d="M74.8578 427.329C79.0075 429.463 82.6353 430.6 87.3304 430.586C93.3447 430.57 98.433 427.907 102.562 423.637C109.09 416.888 111.141 408.042 110.792 398.894C110.574 393.192 107.479 387.139 103.258 383.344L102.709 382.856C103.955 383.263 105.268 384.235 106.275 385.083C112.703 390.492 115.149 398.809 115.772 406.885C115.693 409.002 115.725 411.244 115.36 413.331C114.203 419.943 110.048 426.267 105.181 430.766C99.6464 435.882 92.9265 437.509 85.5569 437.154L83.4064 436.965C80.9546 435.117 75.3498 430.383 74.8578 427.329Z" /><path fill="#010101" transform="scale(0.666667 0.666667)" d="M79.2096 382.295C84.456 379.781 88.9674 378.388 94.7532 380.297C97.3615 381.157 99.3173 383.861 100.461 386.252L100.357 391.011L99.9411 390.616C97.26 388.097 93.9526 386.551 90.2087 386.668C85.4362 386.816 81.0225 388.427 77.7464 391.999C73.4349 396.701 72.0386 402.156 72.3989 408.411C72.6765 413.232 74.9931 418.135 78.6129 421.353C81.3219 423.762 86.4103 426.444 90.1875 426.235C95.6686 425.932 99.9161 421.963 103.218 417.939C105.731 414.876 106.964 411.527 107.643 407.649C107.937 405.977 107.982 404.153 108.587 402.562C108.945 409.212 107.175 416.007 102.641 421.029C98.7877 425.298 94.0197 427.644 88.2556 427.857C83.5103 428.031 78.5875 426.61 75.0615 423.313L71.8057 419.795C68.1836 413.372 66.5153 407.684 67.5993 400.223C68.7221 392.495 73.1603 386.904 79.2096 382.295Z" /><defs><linearGradient id="gradient_0" gradientUnits="userSpaceOnUse" x1="593.06201" y1="492.18799" x2="574.46503" y2="371.72501"><stop offset="0" stop-color="#FD3C07" /><stop offset="1" stop-color="#FE702B" /></linearGradient></defs><path fill="url(#gradient_0)" transform="scale(0.666667 0.666667)" d="M610.999 357.205C614.73 363.181 618.856 368.812 622.82 374.625C624.957 377.76 627.059 380.92 629.203 384.051C630.616 386.114 632.008 388.321 633.97 389.9C635.986 392.133 643.497 393.055 646.567 393.917C648.386 394.428 650.205 395.287 652.077 395.538C652.343 395.948 652.497 396.458 652.875 396.767C654.336 397.958 662.904 399.351 665.301 399.885C677.25 402.548 689.142 405.31 700.716 409.357C701.356 409.581 704.241 410.462 704.514 410.884C704.514 410.885 704.387 411.789 704.372 411.895C703.565 417.611 702.636 423.306 701.994 429.043C701.417 434.202 701.539 439.382 701.532 444.564C701.528 447.361 701.691 450.241 701.177 453L700.528 453.72L700.237 453.694C700.05 453.105 700.025 452.316 699.429 452.028C697.317 451.011 692.819 451.478 690.476 451.449C681.849 451.341 673.108 450.98 664.501 451.557C663.816 454.359 663.366 457.266 663.503 460.161L663.559 462.188L663.184 462.562L662.998 463.123C662.268 463.798 661.671 463.852 660.727 464.043L660.2 461.648L656.442 449.801C653.247 443.045 648.754 437.779 641.532 435.21C636.584 433.449 631.175 433.999 626.484 436.263C615.484 441.571 608.224 454.651 604.47 465.75C602.462 471.687 600.816 477.836 599.797 484.027C599.145 487.988 598.906 492.037 598.201 495.975L594.759 492.652C591.371 493.341 586.482 493.251 583.023 492.886L585.73 468.099C586.062 461.706 586.806 455.295 587.217 448.897C587.644 442.235 587.75 435.532 587.911 428.859C588.105 420.877 588.455 412.828 586.5 405.011C586.436 402.168 582.618 397.417 580.845 395.272C577.619 391.368 574.651 387.703 569.346 387.187L569.689 386.709L579.417 386.976L580.968 387.945L589.741 386.73L589.309 387.145C592.708 388.496 598.914 387.414 602.115 386.065C606.806 384.088 611.189 380.365 613.08 375.562C615.491 369.439 612.126 365.088 609.874 359.704C610.378 358.922 610.67 358.069 610.999 357.205Z" /><path fill="#FED7C1" transform="scale(0.666667 0.666667)" d="M659.279 445.319C660.022 447.07 660.932 448.957 661.354 450.808C662.067 453.941 661.748 458.209 661.312 461.353L660.2 461.648L656.442 449.801C656.942 449.663 657.228 449.557 657.75 449.625L657.375 450.188L658.219 451.689L659.066 450.75L659.438 450.375C659.463 449.592 659.382 449.105 659.094 448.365L658.961 448.031C659.227 447.104 659.258 446.273 659.279 445.319Z" /><path fill="#F3F3F5" transform="scale(0.666667 0.666667)" d="M569.689 386.709L579.417 386.976L580.968 387.945L576.584 388.702C580.388 392.161 584.738 396.131 586.983 400.826C587.432 401.766 588.003 402.997 587.961 404.062C587.934 404.746 587.714 405.32 587.438 405.934C586.91 405.67 586.824 405.486 586.5 405.011C586.436 402.168 582.618 397.417 580.845 395.272C577.619 391.368 574.651 387.703 569.346 387.187L569.689 386.709Z" /><path fill="#FDFDFD" transform="scale(0.666667 0.666667)" d="M594.759 492.652C593.877 489.735 594.295 486.037 594.607 483.022C595.434 475.051 597.123 466.987 599.653 459.375C603.6 447.498 609.808 434.605 621.558 428.777C628.028 425.568 635.152 425.073 642 427.431C650.926 430.505 655.392 437.206 659.279 445.319C659.258 446.273 659.227 447.104 658.961 448.031L659.094 448.365C659.382 449.105 659.463 449.592 659.438 450.375L659.066 450.75L658.219 451.689L657.375 450.188L657.75 449.625C657.228 449.557 656.942 449.663 656.442 449.801C653.247 443.045 648.754 437.779 641.532 435.21C636.584 433.449 631.175 433.999 626.484 436.263C615.484 441.571 608.224 454.651 604.47 465.75C602.462 471.687 600.816 477.836 599.797 484.027C599.145 487.988 598.906 492.037 598.201 495.975L594.759 492.652Z" /><path fill="#1B1818" transform="scale(0.666667 0.666667)" d="M148.618 372.297C150.884 363.192 155.995 354.036 160.155 345.604C182.981 299.336 217.727 257.045 262.278 230.322C288.438 214.631 317.071 205.17 347.062 200.201C381.412 194.51 416.92 195.298 450.766 203.819C495.411 215.058 537.298 236.058 570.048 268.849C578.528 277.339 586.152 286.662 593.65 296.016C604.941 310.101 615.606 324.77 624.846 340.289C632.777 353.609 639.736 367.337 646.312 381.365C648.32 385.646 651.35 390.839 652.077 395.538C650.205 395.287 648.386 394.428 646.567 393.917C643.497 393.055 635.986 392.133 633.97 389.9C632.008 388.321 630.616 386.114 629.203 384.051C627.059 380.92 624.957 377.76 622.82 374.625C618.856 368.812 614.73 363.181 610.999 357.205C610.67 358.069 610.378 358.922 609.874 359.704L592.286 329.541L592.138 330.936C592.743 331.697 593.261 332.423 593.719 333.281C594.6 334.933 596.268 336.689 596.531 338.531C596.114 338.149 595.824 337.819 595.506 337.342L591.844 331.406C591.545 330.866 591.421 330.506 590.999 330.029C590.686 329.676 590.392 329.382 590.156 328.969C589.806 328.356 589.56 327.816 589.113 327.258C588.355 326.311 587.929 325.191 587.256 324.182L584.625 320.25L584.156 319.594C583.594 318.489 582.219 316.906 581.057 316.366L580.5 316.125C579.912 315.842 579.467 315.578 578.83 315.404C578.198 315.232 577.641 314.884 577.031 314.719C576.38 314.542 576.117 314.692 575.432 314.35C574.749 314.008 575.063 314.091 574.395 313.957C573.905 313.859 573.442 313.752 573 313.5C572.039 312.952 571.382 313.23 570.287 313.338C564.192 311.717 558.368 309.982 552.145 308.816C540.594 306.65 528.782 305.838 517.1 304.689C512.572 304.244 507.056 303.079 502.6 303.56C502.707 306.462 503.274 309.213 503.062 312.119L502.669 312.357L502.323 307.638C499.474 307.592 496.81 307.623 493.999 308.117C492.062 311.967 491.318 316.164 490.145 320.281C487.114 330.921 484.455 341.624 481.619 352.312C480.403 356.898 479.068 361.448 477.761 366.008C476.803 369.35 475.619 372.952 475.631 376.458C475.481 377.364 475.659 376.968 475.125 377.659L332.534 370.533L325.917 369.333C324.823 369.411 323.806 369.315 322.875 369.934C321.104 369.917 315.98 370.462 314.625 369.559C313.697 369.561 313.171 369.405 312.375 369.934C311.067 369.935 308.939 369.602 307.875 370.309C307.083 370.312 307.079 370.216 306.375 370.684C305.172 370.685 304.055 370.506 303 371.059L302.248 371.248L301.852 371.343L298.805 371.644C287.638 371.19 275.532 371.161 266.77 379.267C259.913 385.611 255.722 393.277 255.468 402.715C255.418 404.581 255.376 406.242 256.359 407.908L195.836 406.87C192.918 405.317 177.39 405.866 173.085 405.834C157.329 405.718 141.516 405.85 125.771 405.562C125.349 402.369 124.905 399.204 123.709 396.188C120.385 387.805 113.399 380.026 105.03 376.54L104.543 376.342C106.297 375.032 143.278 372.665 148.618 372.297Z" /><path fill="#010101" transform="scale(0.666667 0.666667)" d="M232.524 359.561C235.291 359.485 238.103 359.335 240.867 359.489C244.626 359.698 248.733 360.171 252.449 359.451L252.486 360.001L249.084 362.888C244.565 361.491 238.416 362.216 233.688 362.144C228.934 362.072 223.832 361.794 219.116 361.2L220.935 360.789C224.564 359.983 228.371 360.691 231.843 359.751L232.524 359.561Z" /><path fill="#010101" transform="scale(0.666667 0.666667)" d="M148.618 372.297C150.884 363.192 155.995 354.036 160.155 345.604C182.981 299.336 217.727 257.045 262.278 230.322C288.438 214.631 317.071 205.17 347.062 200.201C381.412 194.51 416.92 195.298 450.766 203.819C495.411 215.058 537.298 236.058 570.048 268.849C578.528 277.339 586.152 286.662 593.65 296.016C604.941 310.101 615.606 324.77 624.846 340.289C632.777 353.609 639.736 367.337 646.312 381.365C648.32 385.646 651.35 390.839 652.077 395.538C650.205 395.287 648.386 394.428 646.567 393.917C643.497 393.055 635.986 392.133 633.97 389.9L634.008 388.949C634.405 389.305 634.764 389.669 635.25 389.908L636 390.191L636.375 390.562L636.938 390.75C637.68 391.036 637.374 391.035 637.977 391.066C638.8 391.109 639.283 391.063 640.031 391.502C640.742 391.919 641.189 391.783 642 391.783L642.375 392.062L643.125 392.066C643.651 392.588 645.785 393.061 646.594 393.281C647.245 393.458 647.508 393.308 648.193 393.65C648.871 393.989 648.571 393.913 649.248 394.049L649.688 394.125C650.43 394.367 650.512 394.438 651.281 394.406L650.812 393.375C650.354 392.095 649.806 390.889 649.312 389.625L649.125 388.875C648.711 388.08 648.394 387.276 647.971 386.49L647.062 384.75C646.821 384.1 646.366 383.482 646.213 382.869C646.091 382.383 646.199 382.59 645.896 382.166C644.611 380.367 644.157 377.556 642.896 375.791C642.281 374.93 642.015 373.796 641.531 372.844C639.127 368.107 636.987 362.547 634.125 358.125C633.83 357.668 633.594 357.534 633.457 356.988L633.375 356.625L632.531 355.219L631.875 354L631.312 353.25C631.054 352.711 631.157 352.519 630.762 351.926L629.531 349.969L628.875 348.75L628.312 348C628.054 347.461 628.157 347.269 627.762 346.676L626.531 344.719L625.125 342.375L624.562 341.625C624.232 340.916 624.13 340.452 623.625 339.75C622.634 338.374 621.923 336.807 620.982 335.396L619.781 333.469L618.756 331.682L605.719 313.031L601.5 307.312C600.808 306.235 599.774 305.281 599.156 304.219C598.706 303.444 598.055 303.024 597.656 302.344C597.206 301.577 596.553 301.144 596.156 300.469C595.706 299.702 595.053 299.269 594.656 298.594C594.206 297.827 593.553 297.394 593.156 296.719C592.706 295.952 592.053 295.519 591.656 294.844C591.206 294.077 590.553 293.644 590.156 292.969C589.537 291.913 588.913 291.367 588.002 290.531C587.998 289.545 586.892 289.259 586.406 288.469C585.752 287.406 584.786 286.818 584.156 285.844C583.722 285.172 583.018 284.586 582.656 283.969C582.012 282.87 581.048 282.335 580.406 281.344C579.746 280.323 578.771 279.67 578.156 278.719C576.952 276.857 574.775 275.625 573.656 273.844C572.217 271.553 569.822 269.581 567.869 267.63C567.225 266.988 566.363 265.86 565.594 265.406C563.641 264.256 562.542 262.052 560.719 260.906C559.673 260.249 559.058 259.28 558.094 258.656C556.955 257.92 557.832 258.787 557.102 258.07C553.911 254.933 550.14 252.287 546.656 249.469L540.908 245.221L540.375 244.875L539.812 244.5L535.5 241.5C534.302 240.592 532.934 239.532 531.615 238.822C531 238.491 530.445 238.155 529.875 237.75C529.075 237.181 528.212 236.776 527.396 236.232L525.469 235.031L523.125 233.625C522.692 233.306 522.52 233.09 521.988 232.957L521.625 232.875L519 231.375L517.594 230.531L516.375 229.875C515.916 229.581 515.786 229.344 515.238 229.207L514.875 229.125C510.716 227.072 506.462 224.172 502.125 222.562C501.032 222.157 499.831 221.233 498.773 220.969C498.19 220.823 497.8 220.525 497.25 220.312C496.649 220.08 496.214 220.043 495.615 219.721L493.875 218.812C493.267 218.587 492.839 218.543 492.24 218.221C489.361 216.671 486.045 215.519 483 214.312L482.25 214.125C481.571 213.822 481.287 213.487 480.51 213.416C479.815 213.353 480.13 213.455 479.443 213.111C478.687 212.733 479.088 212.872 478.312 212.613L472.031 210.469L471 210.375C470.565 210.222 470.225 209.843 469.781 209.719C468.95 209.485 468.617 209.764 467.76 209.303C466.982 208.884 467.352 208.978 466.465 208.852C464.949 208.635 463.382 207.891 461.906 207.469C459.266 206.714 456.657 206.055 454.031 205.219C451.603 204.445 448.772 204.305 446.344 203.531C445.152 203.152 444.08 203.11 442.969 202.781C442.359 202.601 441.933 202.222 441.276 202.177C440.686 202.137 440.14 202.154 439.553 202.037L439.125 201.938L438.188 201.75C437.349 201.462 437.802 201.471 437.151 201.427C436.561 201.387 436.015 201.404 435.428 201.287L435 201.188L434.062 201C433.086 200.664 432.33 200.878 431.438 200.625C430.044 200.23 431.55 200.38 430.037 200.279L429.375 200.25C428.278 199.519 427.369 200.157 426.188 199.875C424.432 199.456 426.679 199.655 424.787 199.529L424.125 199.5C422.984 198.739 421.816 199.406 420.562 199.125C419.523 198.892 418.849 198.776 417.75 198.75C416.602 197.985 413.936 198.375 412.5 198.375C411.477 197.693 409.623 198 408.375 198C407.045 197.113 402.301 197.625 400.5 197.625C400.312 197.5 400.146 197.336 399.938 197.25C399.438 197.044 378.243 197.016 377.438 197.25C375.216 197.895 372.357 197.072 370.5 197.812C369.543 198.194 369.229 198.202 368.211 198.053L367.875 198C366.571 198.869 364.966 197.966 363.562 198.375C362.522 198.678 361.845 198.724 360.75 198.75C359.609 199.511 358.441 198.844 357.188 199.125C356.607 199.255 355.874 199.354 355.312 199.5C354.278 199.768 353.265 199.624 352.312 199.875C351.663 200.047 351.057 200.089 350.438 200.25C349.163 200.58 350.327 200.518 349.319 200.573C348.63 200.61 347.966 200.576 347.283 200.713L346.875 200.812L345.938 201C345.062 201.302 344.676 201.411 343.717 201.428L342.469 201.469C341.839 201.629 340.959 201.893 340.348 202.135C339.73 202.38 339.459 202.231 338.812 202.125L338.156 202.406C337.556 202.569 337.281 202.369 336.686 202.739C336.166 203.063 336.045 202.935 335.438 202.875C334.684 203.198 334.959 203.154 334.225 203.221C333.558 203.281 333.644 203.355 333.188 203.809C332.625 203.693 332.164 203.574 331.588 203.69L331.125 203.812C330.59 203.949 330.115 204.073 329.607 204.298L329.25 204.467L328.688 204.375L328.031 204.656L327 204.75C326.284 205.036 326.157 205.254 325.312 205.309C324.318 205.373 324.146 205.355 323.438 206.059C322.362 205.926 321.637 206.049 320.625 206.438L319.688 206.809C318.667 206.979 318.588 206.789 317.812 207.559L316.875 207.375L316.312 207.934L315.75 207.75C314.915 208.579 314.529 207.951 313.5 208.592L312.938 208.5L312.562 209.059L311.625 208.967C311.181 209.002 310.849 209.247 310.547 209.547L310.312 209.809L309.188 209.625L308.625 210.092L308.062 210L307.688 210.559L306.938 210.375L305.812 211.309L304.875 211.125L304.406 211.498L303.938 211.5L303.562 212.059L302.812 211.875L301.688 212.809L300.75 212.625C300.24 212.886 299.747 213.144 299.209 213.345L298.875 213.467C298.009 213.902 298.833 213.652 297.75 213.938C297.275 214.063 296.939 214.144 296.479 214.354L295.312 214.875L294.375 215.25L293.812 215.625C292.913 216.011 292.259 215.983 291.334 216.672L290.438 217.309L289.875 217.125L288.75 217.688C288.147 217.918 287.714 217.957 287.115 218.279C286.265 218.737 285.022 219.082 284.291 219.604C283.082 220.467 280.403 221.672 279 222.188C278.399 222.408 278.309 222.33 277.705 222.732C277.005 223.199 277.308 223.051 276.615 223.365L272.625 225.375C272.168 225.67 272.034 225.906 271.488 226.043L271.125 226.125L269.719 226.969L268.5 227.625L267.75 228.188C267.211 228.446 267.019 228.343 266.426 228.738L264.469 229.969L258.932 233.244L256.125 235.125L255 235.875C254.369 236.243 253.834 236.477 253.26 236.947L252.193 237.756L241.594 245.344C240.708 245.787 240.461 246.409 239.719 246.844C238.952 247.294 238.519 247.947 237.844 248.344C237.077 248.794 236.644 249.447 235.969 249.844C235.03 250.394 234.558 251.199 233.719 251.719C232.824 252.272 232.283 253.09 231.469 253.594C230.03 254.484 229.128 255.595 227.998 256.873C226.672 256.878 225.219 259.663 223.969 260.344C221.251 261.823 218.475 265.41 216.237 267.65C215.258 268.629 213.625 269.882 212.906 271.031C211.856 272.71 210.192 273.622 209.156 275.156C208.128 276.68 206.292 277.814 205.406 279.281C204.494 280.792 202.917 281.7 202.092 283.21C201.707 283.914 202.003 283.553 201.299 284.202C200.769 284.69 200.288 285.145 199.875 285.75C199.462 286.355 199.202 286.707 198.645 287.208L197.906 287.906C197.213 289.027 196.51 289.705 195.562 290.625L195.559 291.188C194.952 291.555 195.173 291.353 194.696 291.938L194.25 292.5L193.406 293.531C192.925 294.359 192.376 294.719 191.812 295.5L191.809 296.062C190.42 297.059 189.774 298.433 188.719 299.719L187.477 301.336L187.125 301.875L186.656 302.531C186.172 303.482 186.648 302.938 185.889 303.697L185.438 304.125L185.434 304.688C184.2 305.434 183.917 306.683 183.053 307.74C182.462 308.463 182.762 308.033 182.227 308.836L181.875 309.375C181.354 310.133 180.975 310.972 180.428 311.701L180.188 312L180.184 312.562L179.625 312.938L179.342 313.5C178.96 314.136 179.123 313.592 178.95 314.272L178.873 314.623C178.428 315.039 178.091 315.402 177.75 315.914L176.625 317.625C176.051 318.472 175.438 319.311 175.183 320.319L175.123 320.623C173.775 321.882 173.561 323.343 172.506 324.662C172.039 325.246 171.487 325.931 171.188 326.625C170.948 327.178 170.985 327.595 170.541 328.043C170.159 328.428 169.955 328.779 169.688 329.25L169.684 329.812C168.152 331.284 167.79 333.301 166.553 334.951L166.312 335.25L166.309 335.812C165.729 336.278 165.921 336.019 165.615 336.632L165.375 337.125L164.812 337.875C164.548 338.512 164.77 338.648 164.268 339.275C163.784 339.879 163.94 339.577 163.635 340.248L162.75 342C162.393 342.585 162.371 342.941 162.092 343.5C161.91 343.865 161.517 344.19 161.438 344.625L161.434 345.188C160.673 345.919 160.647 346.388 160.217 347.25C160.062 347.561 159.829 347.83 159.674 348.141L159.375 348.75L158.812 349.875C158.511 350.679 158.093 351.866 157.582 352.547L157.312 352.875L157.309 353.438C156.356 354.523 156.439 355.539 155.717 356.625C155.462 357.009 155.217 357.302 155.062 357.75C154.852 358.362 154.791 358.789 154.471 359.385L153.562 361.125C153.337 361.733 153.293 362.161 152.971 362.76C152.067 364.438 150.922 366.794 150.463 368.631C150.325 369.183 150.435 368.887 150.146 369.521C149.707 370.488 149.608 370.602 149.812 371.625L157.312 371.625C158.465 371.879 159.286 371.976 160.5 372C161.523 372.682 163.377 372.375 164.625 372.375C165.527 372.977 166.908 372.75 168 372.75C169.542 373.778 177.044 373.125 179.25 373.125C180.295 372.428 182.283 372.75 183.562 372.75L183.562 372.375L177 372.375C175.874 371.625 172.47 372 171 372C169.852 371.235 167.186 371.625 165.75 371.625C164.642 370.887 162.249 371.25 160.875 371.25C159.571 370.381 157.966 371.284 156.562 370.875C155.527 370.573 156.283 370.604 155.526 370.552C154.369 370.474 153.473 370.35 152.344 370.031C152.276 369.32 152.129 368.617 152.402 367.934L152.625 367.5L154.875 363L155.438 362.25C155.692 361.718 155.595 361.535 155.982 360.955C156.449 360.255 156.301 360.558 156.615 359.865C157.399 358.141 158.838 356.165 159.287 354.369C159.695 352.739 160.866 351.017 161.625 349.5C163.239 346.271 165.455 342.725 166.688 339.375C166.908 338.774 166.83 338.684 167.232 338.08C167.699 337.38 167.551 337.683 167.865 336.99L169.875 333L171.375 330.375L172.875 327.75L173.719 326.344L175.869 322.682L179.625 317.062C179.981 316.509 180.295 316.005 180.715 315.492C181.622 314.384 182.138 313.123 183 312C183.442 311.425 183.828 311.015 184.178 310.365C184.722 309.354 185.425 308.484 186 307.5C186.376 306.856 186.615 306.312 187.096 305.725C187.649 305.048 187.381 305.456 187.875 304.688L189.779 302.033L190.125 301.5L190.5 300.938C190.856 300.384 191.17 299.88 191.59 299.367C191.87 299.024 192.266 298.623 192.469 298.219C192.912 297.333 193.534 297.086 193.969 296.344C194.519 295.405 195.324 294.933 195.844 294.094C196.499 293.036 197.466 292.44 198.094 291.469C198.646 290.615 199.479 290.01 199.969 289.219C200.522 288.324 201.34 287.783 201.844 286.969C202.499 285.911 203.466 285.315 204.094 284.344C204.91 283.082 206.411 282.155 207.094 280.969C208.207 279.035 210.261 277.379 211.864 275.785C214.036 273.624 216.184 271.156 218.549 269.22L219.844 268.219L220.125 267.562C222.694 266.706 224.422 262.617 226.781 261.281C228.164 260.498 228.901 259.004 230.156 258.281C231.109 257.733 231.559 256.931 232.406 256.406C233.464 255.751 234.06 254.784 235.031 254.156C235.703 253.722 236.289 253.018 236.906 252.656C237.872 252.09 237.278 252.679 237.898 252.07L239.514 250.506L240 250.125L242.496 248.297L252 241.125C252.578 240.687 252.984 240.297 253.635 239.947L254.818 239.256L257.625 237.375L260.625 235.5C261.812 234.657 263.127 233.996 264.375 233.25L265.781 232.406L273.375 228.375C274.816 227.442 276.365 226.886 277.875 226.125C278.66 225.729 279.492 225.382 280.266 224.965L288.375 221.062C288.976 220.83 289.411 220.793 290.01 220.471C291.313 219.769 292.783 219.081 294.188 218.613L294.75 218.438L295.875 218.062C296.58 217.864 297.078 217.579 297.75 217.312L298.5 217.125C299.179 216.822 299.463 216.487 300.24 216.416C300.935 216.353 300.62 216.455 301.307 216.111C302.063 215.733 301.662 215.872 302.438 215.613C304.673 214.868 307.8 213.406 310.075 213.469C308.405 214.636 304.836 215.244 302.817 215.952C248.464 235.006 204.818 276.502 175.114 325.007C168.641 335.579 163.408 346.964 158.049 358.126C156.191 361.995 154.091 365.746 152.227 369.618C171.214 372.674 189.672 371.944 208.591 369.098C213.959 368.29 219.155 366.71 224.557 366.067C230.533 365.356 236.399 365.666 242.341 365.229L242.958 365.181C243.692 364.67 243.998 364.674 244.875 364.531C246.518 364.265 247.639 363.712 249.084 362.888L252.486 360.001C253.808 361.103 256.399 360.485 258.175 360.559L261.496 355.026L261.897 355.218C261.723 355.941 261.574 356.563 261.118 357.175C260.728 357.698 260.305 358.178 259.986 358.752L258.562 361.5L258.375 362.25C257.877 363.333 257.629 363.516 257.719 364.781C258.428 364.308 259.203 363.501 259.594 362.719C260.037 361.833 260.659 361.586 261.094 360.844C261.674 359.854 261.073 360.488 261.657 359.865C262.764 358.686 263.413 357.516 264.375 356.25C265.002 355.425 265.547 354.322 266.245 353.62C266.784 353.079 266.532 353.409 267.017 352.682L267.375 352.125L267.844 351.469C268.46 350.371 269.148 349.477 269.844 348.434L270.189 347.906L270.844 346.969C271.422 345.876 270.803 346.707 271.471 345.873L272.953 343.805L273.188 343.5L273.191 342.938C274.542 341.909 275.411 340.007 276.375 338.625L276.844 337.969C277.363 336.948 276.849 337.651 277.471 336.873L279.375 334.125L280.874 332.077L281.442 332.319L262.198 360.693L269.404 360.155C272.294 360.824 276.315 360.226 279.317 360.176C286.944 360.047 294.572 359.985 302.194 359.668L366.302 361.498C370.571 361.36 385.705 362.926 388.459 361.263L393.436 361.702L395.34 362.23C403.379 362.938 411.286 363.702 419.153 365.612C430.58 368.385 443.073 374.691 455.006 373.859L455.096 373.388L457.518 373.085C459.191 373.049 461.497 373.125 462.938 372.203C464.987 370.893 466.309 368.839 467.277 366.66C468.665 363.533 469.451 360.134 470.391 356.854C472.112 350.848 473.681 344.788 475.273 338.747C478.281 327.332 481.747 316.008 484.443 304.518L484.91 304.293C486.236 303.859 487.861 303.713 489.242 303.453C492.477 302.842 496.557 301.561 499.703 302.822C500.827 303.544 501.265 303.614 502.6 303.56C502.707 306.462 503.274 309.213 503.062 312.119L502.669 312.357L502.323 307.638C499.474 307.592 496.81 307.623 493.999 308.117C492.062 311.967 491.318 316.164 490.145 320.281C487.114 330.921 484.455 341.624 481.619 352.312C480.403 356.898 479.068 361.448 477.761 366.008C476.803 369.35 475.619 372.952 475.631 376.458C475.481 377.364 475.659 376.968 475.125 377.659L332.534 370.533L325.917 369.333C319.537 367.948 313.272 368.266 306.784 368.309C296.43 368.377 286.112 368.798 275.769 369.198C257.793 369.893 239.772 369.813 221.794 370.678C206.841 371.398 191.91 373.096 176.962 373.682C167.486 374.054 158.116 372.29 148.618 372.297Z" /><path fill="#FDB478" transform="scale(0.666667 0.666667)" d="M249.084 362.888L252.486 360.001C253.808 361.103 256.399 360.485 258.175 360.559L256.417 365.26C251.957 365.346 247.4 365.636 242.958 365.181C243.692 364.67 243.998 364.674 244.875 364.531C246.518 364.265 247.639 363.712 249.084 362.888Z" /><path fill="#FD6E23" transform="scale(0.666667 0.666667)" d="M388.459 361.263L393.436 361.702L395.34 362.23C390.927 362.655 386.534 363.262 382.102 363.455C374.803 363.774 367.558 363.483 360.263 363.402C355.392 363.348 350.401 363.579 345.562 363.053C350.57 362.217 356.814 362.777 361.935 362.873C364.554 362.922 366.867 363.18 369.422 362.438C368.304 362.278 367.346 361.903 366.302 361.498C370.571 361.36 385.705 362.926 388.459 361.263Z" /><path fill="#FE6623" transform="scale(0.666667 0.666667)" d="M302.194 359.668L366.302 361.498C367.346 361.903 368.304 362.278 369.422 362.438C366.867 363.18 364.554 362.922 361.935 362.873C356.814 362.777 350.57 362.217 345.562 363.053L258.768 365.256C259.837 363.641 260.875 362.119 262.198 360.693L269.404 360.155C272.294 360.824 276.315 360.226 279.317 360.176C286.944 360.047 294.572 359.985 302.194 359.668Z" /><path fill="#FDFDFD" transform="scale(0.666667 0.666667)" d="M457.518 373.085C459.191 373.049 461.497 373.125 462.938 372.203C464.987 370.893 466.309 368.839 467.277 366.66C468.665 363.533 469.451 360.134 470.391 356.854C472.112 350.848 473.681 344.788 475.273 338.747C478.281 327.332 481.747 316.008 484.443 304.518L484.91 304.293C486.236 303.859 487.861 303.713 489.242 303.453C492.477 302.842 496.557 301.561 499.703 302.822C496.659 303.111 491.858 303.695 489.722 306.102C489.068 306.838 488.784 307.784 488.534 308.715C486.924 314.706 485.977 320.953 484.483 327C480.591 342.748 476.413 358.417 472.587 374.184L455.006 373.859L455.096 373.388L457.518 373.085Z" /><path fill="#FDFDFD" transform="scale(0.666667 0.666667)" d="M232.524 359.561L232.849 359.386C234.31 358.577 236.471 358.86 238.125 358.54C240.705 358.04 243.203 357.112 245.795 356.636C248.078 356.216 250.498 356.175 252.815 356.035C260.586 342.308 269.919 329.023 278.886 316.057C283.988 308.679 289.027 300.493 295.039 293.839C297.482 291.135 300.381 288.92 303.479 287.017C309.811 283.125 317.159 281.386 324.37 279.967C331.58 278.548 338.83 277.493 346.125 276.624C374.101 273.29 402.405 272.344 430.551 273.378C446.644 273.969 462.73 275.079 478.687 277.312C493.756 279.42 509.008 282.612 523.794 286.171C540.432 290.176 556.882 294.892 571.912 303.251C575.96 305.502 580.154 307.796 583.247 311.32C586.914 315.497 589.312 320.715 592.151 325.463C598.464 336.022 604.57 346.717 610.999 357.205C610.67 358.069 610.378 358.922 609.874 359.704L592.286 329.541C590.773 326.339 588.83 323.313 587.077 320.236C585.826 318.042 584.509 315.013 582.438 313.484C580.363 311.952 576.987 310.964 574.546 310.09C565.897 306.991 556.928 305.425 547.875 304.061C538.32 302.62 528.838 301.573 519.219 300.682C511.776 299.993 504.031 298.986 496.552 299.368C493.146 299.543 489.76 299.953 486.375 300.355C485.87 300.415 483.868 300.836 483.486 300.702C483.325 300.645 483.273 300.436 483.165 300.304C477.537 293.452 466.918 291.968 458.674 290.711C453.176 289.872 447.603 289.173 442.064 288.661C422.958 286.893 403.666 286.387 384.487 286.413C365.832 286.439 347.192 286.894 328.688 289.398C323.078 290.157 317.218 290.741 311.803 292.475C308.447 293.551 305.215 295.117 302.497 297.373C296.941 301.986 292.771 308.282 288.604 314.112C282.03 323.31 275.836 332.745 269.631 342.192C267.022 346.165 263.361 350.681 261.496 355.026L258.175 360.559C256.399 360.485 253.808 361.103 252.486 360.001L252.449 359.451C248.733 360.171 244.626 359.698 240.867 359.489C238.103 359.335 235.291 359.485 232.524 359.561Z" /><path fill="#FE6623" transform="scale(0.666667 0.666667)" d="M148.618 372.297C158.116 372.29 167.486 374.054 176.962 373.682C191.91 373.096 206.841 371.398 221.794 370.678C239.772 369.813 257.793 369.893 275.769 369.198C286.112 368.798 296.43 368.377 306.784 368.309C313.272 368.266 319.537 367.948 325.917 369.333C324.823 369.411 323.806 369.315 322.875 369.934C321.104 369.917 315.98 370.462 314.625 369.559C313.697 369.561 313.171 369.405 312.375 369.934C311.067 369.935 308.939 369.602 307.875 370.309C307.083 370.312 307.079 370.216 306.375 370.684C305.172 370.685 304.055 370.506 303 371.059L302.248 371.248L301.852 371.343L298.805 371.644C287.638 371.19 275.532 371.161 266.77 379.267C259.913 385.611 255.722 393.277 255.468 402.715C255.418 404.581 255.376 406.242 256.359 407.908L195.836 406.87C192.918 405.317 177.39 405.866 173.085 405.834C157.329 405.718 141.516 405.85 125.771 405.562C125.349 402.369 124.905 399.204 123.709 396.188C120.385 387.805 113.399 380.026 105.03 376.54L104.543 376.342C106.297 375.032 143.278 372.665 148.618 372.297Z" /><path fill="#02070C" transform="scale(0.666667 0.666667)" d="M261.496 355.026C263.361 350.681 267.022 346.165 269.631 342.192C275.836 332.745 282.03 323.31 288.604 314.112C292.771 308.282 296.941 301.986 302.497 297.373C305.215 295.117 308.447 293.551 311.803 292.475C317.218 290.741 323.078 290.157 328.688 289.398C347.192 286.894 365.832 286.439 384.487 286.413C403.666 286.387 422.958 286.893 442.064 288.661C447.603 289.173 453.176 289.872 458.674 290.711C466.918 291.968 477.537 293.452 483.165 300.304C483.273 300.436 483.325 300.645 483.486 300.702C483.868 300.836 485.87 300.415 486.375 300.355C489.76 299.953 493.146 299.543 496.552 299.368C504.031 298.986 511.776 299.993 519.219 300.682C528.838 301.573 538.32 302.62 547.875 304.061C556.928 305.425 565.897 306.991 574.546 310.09C576.987 310.964 580.363 311.952 582.438 313.484C584.509 315.013 585.826 318.042 587.077 320.236C588.83 323.313 590.773 326.339 592.286 329.541L592.138 330.936C592.743 331.697 593.261 332.423 593.719 333.281C594.6 334.933 596.268 336.689 596.531 338.531C596.114 338.149 595.824 337.819 595.506 337.342L591.844 331.406C591.545 330.866 591.421 330.506 590.999 330.029C590.686 329.676 590.392 329.382 590.156 328.969C589.806 328.356 589.56 327.816 589.113 327.258C588.355 326.311 587.929 325.191 587.256 324.182L584.625 320.25L584.156 319.594C583.594 318.489 582.219 316.906 581.057 316.366L580.5 316.125C579.912 315.842 579.467 315.578 578.83 315.404C578.198 315.232 577.641 314.884 577.031 314.719C576.38 314.542 576.117 314.692 575.432 314.35C574.749 314.008 575.063 314.091 574.395 313.957C573.905 313.859 573.442 313.752 573 313.5C572.039 312.952 571.382 313.23 570.287 313.338C564.192 311.717 558.368 309.982 552.145 308.816C540.594 306.65 528.782 305.838 517.1 304.689C512.572 304.244 507.056 303.079 502.6 303.56C501.265 303.614 500.827 303.544 499.703 302.822C496.557 301.561 492.477 302.842 489.242 303.453C487.861 303.713 486.236 303.859 484.91 304.293L484.443 304.518C481.747 316.008 478.281 327.332 475.273 338.747C473.681 344.788 472.112 350.848 470.391 356.854C469.451 360.134 468.665 363.533 467.277 366.66C466.309 368.839 464.987 370.893 462.938 372.203C461.497 373.125 459.191 373.049 457.518 373.085L455.096 373.388L455.006 373.859C443.073 374.691 430.58 368.385 419.153 365.612C411.286 363.702 403.379 362.938 395.34 362.23L393.436 361.702L388.459 361.263C385.705 362.926 370.571 361.36 366.302 361.498L302.194 359.668C294.572 359.985 286.944 360.047 279.317 360.176C276.315 360.226 272.294 360.824 269.404 360.155L262.198 360.693L281.442 332.319L280.874 332.077L279.375 334.125L277.471 336.873C276.849 337.651 277.363 336.948 276.844 337.969L276.375 338.625C275.411 340.007 274.542 341.909 273.191 342.938L273.188 343.5L272.953 343.805L271.471 345.873C270.803 346.707 271.422 345.876 270.844 346.969L270.189 347.906L269.844 348.434C269.148 349.477 268.46 350.371 267.844 351.469L267.375 352.125L267.017 352.682C266.532 353.409 266.784 353.079 266.245 353.62C265.547 354.322 265.002 355.425 264.375 356.25C263.413 357.516 262.764 358.686 261.657 359.865C261.073 360.488 261.674 359.854 261.094 360.844C260.659 361.586 260.037 361.833 259.594 362.719C259.203 363.501 258.428 364.308 257.719 364.781C257.629 363.516 257.877 363.333 258.375 362.25L258.562 361.5L259.986 358.752C260.305 358.178 260.728 357.698 261.118 357.175C261.574 356.563 261.723 355.941 261.897 355.218L261.496 355.026Z" /><path fill="#F3F3F5" transform="scale(0.666667 0.666667)" d="M374.066 357.863L394.955 360.099C394.446 360.719 394.07 361.207 393.436 361.702L388.459 361.263L370.086 359.278C371.728 358.301 372.819 359.007 374.52 358.777L375 358.691L375.375 358.684L374.066 357.863Z" /><path fill="#D0D0D0" transform="scale(0.666667 0.666667)" d="M394.955 360.099C404.76 360.781 414.9 362.444 424.336 365.164C431.351 367.186 438.257 369.784 445.361 371.454C449.446 372.415 453.471 372.354 457.518 373.085L455.096 373.388L455.006 373.859C443.073 374.691 430.58 368.385 419.153 365.612C411.286 363.702 403.379 362.938 395.34 362.23L393.436 361.702C394.07 361.207 394.446 360.719 394.955 360.099Z" /><path fill="#FDFDFD" transform="scale(0.666667 0.666667)" d="M312.288 356.645L374.066 357.863L375.375 358.684L375 358.691L374.52 358.777C372.819 359.007 371.728 358.301 370.086 359.278C368.269 359.508 365.95 359.14 364.088 359.057C359.677 358.862 355.265 358.692 350.851 358.574C337.648 358.219 324.429 358.244 311.221 358.182C311.648 357.77 311.962 357.145 312.288 356.645Z" /><path fill="#010101" transform="scale(0.666667 0.666667)" d="M311.221 358.182C324.429 358.244 337.648 358.219 350.851 358.574C355.265 358.692 359.677 358.862 364.088 359.057C365.95 359.14 368.269 359.508 370.086 359.278L388.459 361.263C385.705 362.926 370.571 361.36 366.302 361.498L302.194 359.668C302.969 359.225 303.532 358.893 304.45 358.852C305.521 358.805 306.54 358.718 307.608 358.585C308.844 358.569 310.003 358.387 311.221 358.182Z" /><path fill="#4E7885" transform="scale(0.666667 0.666667)" d="M336.7 296.694C339.526 298.345 342.017 300.18 344.556 302.242C336.231 313.269 329.489 325.777 322.506 337.688C320.454 341.189 318.497 344.744 316.445 348.245C314.953 350.792 313.264 353.329 312.127 356.059L312.288 356.645C311.962 357.145 311.648 357.77 311.221 358.182C310.003 358.387 308.844 358.569 307.608 358.585L304.166 358.405C304.125 358.124 303.998 357.842 304.044 357.562C304.11 357.156 304.851 356.165 305.074 355.781C306.007 354.174 306.974 352.597 307.954 351.019C310.28 347.279 312.484 343.436 314.709 339.634C318.285 333.523 321.651 327.279 325.191 321.142C328.494 315.416 332.19 309.691 334.79 303.598C335.779 301.278 336.315 299.165 336.7 296.694Z" /><path fill="#224458" transform="scale(0.666667 0.666667)" d="M317.596 295.133C319.066 295.794 321.969 295.191 323.627 295.183C327.95 295.163 332.604 295.162 336.7 296.694C336.315 299.165 335.779 301.278 334.79 303.598C332.19 309.691 328.494 315.416 325.191 321.142C321.651 327.279 318.285 333.523 314.709 339.634C312.484 343.436 310.28 347.279 307.954 351.019C306.974 352.597 306.007 354.174 305.074 355.781C304.851 356.165 304.11 357.156 304.044 357.562C303.998 357.842 304.125 358.124 304.166 358.405L307.608 358.585C306.54 358.718 305.521 358.805 304.45 358.852C303.532 358.893 302.969 359.225 302.194 359.668C294.572 359.985 286.944 360.047 279.317 360.176C276.315 360.226 272.294 360.824 269.404 360.155L262.198 360.693L281.442 332.319C283.035 331.132 284.974 327.49 286.208 325.751C290.501 319.696 294.689 313.51 299.356 307.736C304.475 301.401 309.034 296.045 317.596 295.133Z" /><path fill="#FDFDFD" transform="scale(0.666667 0.666667)" d="M317.596 295.133C316.91 297.703 312.48 301.257 310.688 303.269C308.342 305.901 306.155 308.734 304.01 311.532C297.344 320.231 290.968 329.067 284.763 338.102C279.686 345.495 274.848 353.018 269.404 360.155L262.198 360.693L281.442 332.319C283.035 331.132 284.974 327.49 286.208 325.751C290.501 319.696 294.689 313.51 299.356 307.736C304.475 301.401 309.034 296.045 317.596 295.133Z" /><path fill="#02070C" transform="scale(0.666667 0.666667)" d="M502.6 303.56C507.056 303.079 512.572 304.244 517.1 304.689C528.782 305.838 540.594 306.65 552.145 308.816C558.368 309.982 564.192 311.717 570.287 313.338C571.382 313.23 572.039 312.952 573 313.5C573.442 313.752 573.905 313.859 574.395 313.957C575.063 314.091 574.749 314.008 575.432 314.35C576.117 314.692 576.38 314.542 577.031 314.719C577.641 314.884 578.198 315.232 578.83 315.404C579.467 315.578 579.912 315.842 580.5 316.125L581.057 316.366C582.219 316.906 583.594 318.489 584.156 319.594L584.625 320.25L587.256 324.182C587.929 325.191 588.355 326.311 589.113 327.258C589.56 327.816 589.806 328.356 590.156 328.969C590.392 329.382 590.686 329.676 590.999 330.029C591.421 330.506 591.545 330.866 591.844 331.406L595.506 337.342C595.824 337.819 596.114 338.149 596.531 338.531C596.268 336.689 594.6 334.933 593.719 333.281C593.261 332.423 592.743 331.697 592.138 330.936L592.286 329.541L609.874 359.704C612.126 365.088 615.491 369.439 613.08 375.562C611.189 380.365 606.806 384.088 602.115 386.065C598.914 387.414 592.708 388.496 589.309 387.145L589.741 386.73L580.968 387.945L579.417 386.976L569.689 386.709L569.346 387.187C574.651 387.703 577.619 391.368 580.845 395.272C582.618 397.417 586.436 402.168 586.5 405.011C588.455 412.828 588.105 420.877 587.911 428.859C587.75 435.532 587.644 442.235 587.217 448.897C586.806 455.295 586.062 461.706 585.73 468.099L583.023 492.886C586.482 493.251 591.371 493.341 594.759 492.652L598.201 495.975C598.906 492.037 599.145 487.988 599.797 484.027C600.816 477.836 602.462 471.687 604.47 465.75C608.224 454.651 615.484 441.571 626.484 436.263C631.175 433.999 636.584 433.449 641.532 435.21C648.754 437.779 653.247 443.045 656.442 449.801L660.2 461.648L660.727 464.043C663.683 472.996 669.597 483.097 678.312 487.539L682.199 489.349C673.506 494.886 665.058 497.389 654.866 498.29C654.693 509.292 652.25 519.427 646.68 529.017C644.966 531.969 642.735 534.709 640.709 537.458C647.431 537.948 654.315 537.696 661.056 537.73C672.677 537.788 684.297 537.859 695.918 537.886C700.908 537.898 706.474 537.18 711.375 537.683C712.002 537.747 712.528 537.931 713.062 538.259C714.464 539.119 715.969 540.53 716.292 542.219C716.511 543.366 716.361 544.49 715.701 545.443C714.543 547.115 712.069 548.116 710.129 548.419C708.292 548.706 706.204 548.506 704.335 548.483C701.186 548.444 698.035 548.461 694.886 548.46C682.068 548.455 669.251 548.455 656.434 548.459C611.61 548.473 566.787 548.643 521.964 548.596C369.247 548.434 216.528 548.845 63.8126 548.64C60.3313 548.635 56.5191 549.051 53.64 546.671C52.6739 545.872 52.0754 545.082 52.005 543.783C51.9226 542.26 52.563 540.823 53.647 539.767C54.3485 539.083 56.608 537.477 57.5978 537.485C60.3604 537.506 63.1791 538.095 66.0048 538.119C90.0041 538.322 114.019 538.161 138.019 538.166C135.474 536.736 132.787 535.542 130.372 533.889C124.304 529.733 120.472 524.21 117.681 517.5C117.052 515.99 116.534 514.513 116.181 512.914C116.11 512.589 115.937 511.201 115.795 511.005C115.63 510.778 115.235 510.957 114.956 510.93C111.08 510.546 107.785 509.511 104.606 507.243C95.2993 500.601 89.4101 488.126 87.5607 477.067C87.4313 476.293 85.883 476.609 85.1132 476.608C77.7461 476.601 66.6271 477.053 60.7842 472.055C58.774 470.336 56.7609 467.832 56.6938 465.06C56.6566 463.522 57.7596 461.844 58.8602 460.851L61.0606 459.242L60.187 459.06L59.6578 458.25L60.5625 457.112C67.5568 449.945 82.026 452.525 91.1926 452.363C89.5295 447.872 87.7638 443.654 85.2158 439.587C84.772 439.311 83.7543 437.475 83.4064 436.965L85.5569 437.154C92.9265 437.509 99.6464 435.882 105.181 430.766C110.048 426.267 114.203 419.943 115.36 413.331C115.725 411.244 115.693 409.002 115.772 406.885C120.234 406.71 125.772 405.986 130.094 407.219L195.836 406.87L256.359 407.908C255.376 406.242 255.418 404.581 255.468 402.715C255.722 393.277 259.913 385.611 266.77 379.267C275.532 371.161 287.638 371.19 298.805 371.644L301.852 371.343L302.248 371.248L303 371.059C304.055 370.506 305.172 370.685 306.375 370.684C307.079 370.216 307.083 370.312 307.875 370.309C308.939 369.602 311.067 369.935 312.375 369.934C313.171 369.405 313.697 369.561 314.625 369.559C315.98 370.462 321.104 369.917 322.875 369.934C323.806 369.315 324.823 369.411 325.917 369.333L332.534 370.533L475.125 377.659C475.659 376.968 475.481 377.364 475.631 376.458C475.619 372.952 476.803 369.35 477.761 366.008C479.068 361.448 480.403 356.898 481.619 352.312C484.455 341.624 487.114 330.921 490.145 320.281C491.318 316.164 492.062 311.967 493.999 308.117C496.81 307.623 499.474 307.592 502.323 307.638L502.669 312.357L503.062 312.119C503.274 309.213 502.707 306.462 502.6 303.56Z" /><path fill="#FDFDFD" transform="scale(0.666667 0.666667)" d="M140.178 447.562L160.312 448.295L158.468 448.438C156.199 448.615 153.906 448.608 151.651 448.942C148.733 449.375 142.088 451.795 139.598 450.373C139.563 449.065 139.311 448.585 140.178 447.562Z" /><path fill="#010101" transform="scale(0.666667 0.666667)" d="M346.757 391.182L347.817 390.938L347.898 391.297L348.317 392.598C349.538 395.977 350.2 399.542 350.709 403.09C350.735 411.323 350.195 419.417 349.517 427.617C349.028 433.52 348.644 439.669 347.213 445.427L346.622 445.541C346.847 444.822 346.672 444.097 346.875 443.438C347.26 442.187 347.13 443.4 347.221 442.037L347.25 441.375C348.011 440.234 347.344 439.066 347.625 437.812C347.858 436.773 347.974 436.099 348 435C348.968 433.548 348.087 430.121 348.457 428.271L348.562 427.875L348.75 427.125C349.726 425.268 348.6 422.777 349.266 420.779L349.406 420.469C349.053 419.645 349.247 420.017 348.844 419.344L348.75 421.5C347.959 422.687 348.375 425.628 348.375 427.125C347.773 428.027 348 429.408 348 430.5C347.239 431.641 347.906 432.809 347.625 434.062C347.495 434.643 347.396 435.376 347.25 435.938C346.905 437.268 346.981 435.969 346.927 437.138C346.85 438.821 346.528 439.875 346.207 441.48C345.901 443.01 345.832 444.188 344.625 445.309C343.86 445.365 343.269 445.6 342.643 445.119C343.466 444.79 344.095 444.444 344.812 443.925C346.707 438.504 347.047 432.33 347.547 426.631C348.233 418.799 348.843 410.975 348.808 403.108C348.59 398.981 348.105 395.115 346.757 391.182Z" /><path fill="#FD5014" transform="scale(0.666667 0.666667)" d="M315.125 406.688L315.968 406.641L316.114 408.938C316.054 416.858 311.733 426.049 306.24 431.618C300.317 437.622 292.837 440.995 284.358 440.981C280.019 440.974 274.679 440.351 271.028 437.848C269.444 436.762 268.025 435.103 266.676 433.734C266.184 433.199 265.92 432.806 265.654 432.129C268.217 434.393 271.073 436.485 274.356 437.565C281.361 439.868 290.145 438.67 296.662 435.408C304.189 431.641 309.068 424.92 311.972 417.153C313.246 413.747 313.984 410.145 315.125 406.688Z" /><path fill="#FDFDFD" transform="scale(0.666667 0.666667)" d="M249.761 433.688L249.922 433.73L249.623 434.438C248.436 435.338 247.09 435.583 245.625 435.689C238.218 436.226 230.517 435.876 223.083 435.905C209.181 435.96 195.279 436.009 181.377 436.006C171.722 436.004 162.066 435.962 152.41 435.992C147.133 436.009 141.556 436.395 136.312 435.851C135.951 435.629 135.617 435.28 135.296 435C135.385 434.853 135.421 434.657 135.562 434.56C135.64 434.507 137.017 434.553 137.14 434.552C140.352 434.536 143.564 434.523 146.776 434.515C171.95 434.453 197.124 434.487 222.299 434.423C228.496 434.407 234.694 434.415 240.892 434.4C243.29 434.395 246.324 434.735 248.625 434.265C249.103 434.167 249.37 433.961 249.761 433.688Z" /><defs><linearGradient id="gradient_1" gradientUnits="userSpaceOnUse" x1="85.3125" y1="437.81201" x2="117.225" y2="445.48199"><stop offset="0" stop-color="#EB2D01" /><stop offset="1" stop-color="#FF5307" /></linearGradient></defs><path fill="url(#gradient_1)" transform="scale(0.666667 0.666667)" d="M115.772 406.885C120.234 406.71 125.772 405.986 130.094 407.219C128.776 407.841 127.313 408.452 126.13 409.307C123.017 411.56 120.592 415.913 118.438 419.074C112.29 428.099 106.081 437.351 94.6948 439.68C91.379 440.358 88.4303 439.326 85.2158 439.587C84.772 439.311 83.7543 437.475 83.4064 436.965L85.5569 437.154C92.9265 437.509 99.6464 435.882 105.181 430.766C110.048 426.267 114.203 419.943 115.36 413.331C115.725 411.244 115.693 409.002 115.772 406.885Z" /><path fill="#FD5014" transform="scale(0.666667 0.666667)" d="M257.194 416.639C260.582 422.441 260.306 429.457 262.564 435.659C264.643 441.369 268.121 446.498 270.379 452.151L247.102 451.763C248.093 450.575 248.815 449.033 249.683 447.739C251.13 445.581 253.826 442.933 254.166 440.341C255.264 437.882 256.069 435.575 256.631 432.938C257.757 427.647 257.413 422.022 257.194 416.639Z" /><path fill="#FD5014" transform="scale(0.666667 0.666667)" d="M450.697 504.562C454.608 503.8 459.537 504.427 463.566 504.454C473.45 504.519 483.335 504.624 493.22 504.65C516.126 504.712 539.033 504.629 561.939 504.71C567.362 504.729 572.785 504.75 578.208 504.781C581.239 504.798 584.667 504.513 587.625 505.132L588.048 505.868L587.438 506.718C576.593 507.26 565.601 506.957 554.74 506.972C536.222 506.998 517.704 507.025 499.186 507.018C488.122 507.014 477.058 506.95 465.995 506.858C461.03 506.817 455.407 507.308 450.562 506.53C450.231 505.567 450.331 505.531 450.697 504.562Z" /><path fill="#FDFDFD" transform="scale(0.666667 0.666667)" d="M254.166 440.341C253.591 441.096 252.849 442.267 252.027 442.75C250.853 443.44 249.076 443.539 247.738 443.592C228.778 444.335 209.643 443.559 190.652 443.779C178.693 443.917 166.734 443.973 154.774 444.02C147.269 444.049 139.387 444.597 131.976 443.378C130.559 440.845 129.848 438.574 129.274 435.75C127.959 429.27 127.682 420.749 129.814 414.472C130.464 412.556 131.416 410.822 133.357 410.013C134.942 409.352 136.91 409.347 138.605 409.276C154.131 408.631 169.961 409.253 185.518 409.277C203.438 409.305 221.449 408.823 239.351 409.343C241.196 409.397 243.29 409.301 245.009 410.03C247.986 411.294 250.1 414.544 251.309 417.425C253.485 422.607 252.822 427.968 250.663 432.976C251.154 430.258 251.881 428.066 251.584 425.25C251.125 420.888 249.113 414.764 245.657 411.995C245.089 411.54 244.269 410.841 243.537 410.692C241.94 410.367 239.901 410.536 238.245 410.515C234.398 410.465 230.546 410.5 226.698 410.505C213.008 410.523 199.317 410.553 185.626 410.566C174.489 410.576 163.353 410.549 152.217 410.536C147.362 410.53 141.627 409.949 136.875 410.672C135.616 410.864 134.353 411.516 133.6 412.572C130.333 417.15 130.911 427.697 131.691 433.096C132.238 436.882 133.368 438.905 136.408 441.195C140.722 442.238 145.759 441.798 150.207 441.802C157.357 441.808 164.507 441.811 171.657 441.813C194.04 441.819 216.657 442.459 239.013 441.633C242.02 441.522 245.378 441.546 248.253 440.608C250.074 440.015 251.434 438.794 252.253 437.062C255.541 430.109 254.726 420.05 252.395 412.972C253.193 412.811 255.234 413.374 255.968 413.812C256.921 414.381 256.938 415.632 257.194 416.639C257.413 422.022 257.757 427.647 256.631 432.938C256.069 435.575 255.264 437.882 254.166 440.341Z" /><path fill="#FDFDFD" transform="scale(0.666667 0.666667)" d="M91.1926 452.363L91.7665 452.414L108.622 452.589C110.949 449.51 113.498 446.516 117.562 445.927C121.296 445.386 125.67 446.639 129.382 447.204C129.922 447.286 129.787 447.305 130.376 447.689C129.032 448.186 126.713 447.689 125.23 447.595C121.222 447.341 114.856 448.105 112.762 452.164C110.876 455.822 114.221 461.684 115.078 465.402C105.671 465.472 96.2639 465.533 86.8574 465.66C82.1478 465.723 77.1257 466.158 72.4423 465.792C71.5329 465.721 71.0956 465.654 70.4218 465.002C68.6801 463.316 68.2119 458.741 65.5313 458.677C64.0058 458.641 62.5335 458.854 61.0606 459.242L60.187 459.06L59.6578 458.25L60.5625 457.112C67.5568 449.945 82.026 452.525 91.1926 452.363Z" /><path fill="#FDFDFD" transform="scale(0.666667 0.666667)" d="M247.102 451.763L270.379 452.151C278.293 452.3 286.191 452.517 294.108 452.564C299.506 452.595 305.07 452.351 310.439 452.755C311.991 452.872 313.359 452.963 314.614 453.994C315.54 454.754 316.424 456.448 316.45 457.653C316.49 459.598 315.122 461.483 313.721 462.698C310.231 465.725 304.846 466.595 300.397 467.047C290.392 468.064 279.604 466.632 269.553 466.163C261.081 465.768 252.551 465.914 244.101 465.253C243.913 460.943 244.17 455.14 247.102 451.763Z" /><path fill="#FD5014" transform="scale(0.666667 0.666667)" d="M348.808 403.108C348.843 410.975 348.233 418.799 347.547 426.631C347.047 432.33 346.707 438.504 344.812 443.925C344.095 444.444 343.466 444.79 342.643 445.119C340.973 444.376 338.131 444.828 336.307 444.86C331.158 444.95 326.009 445.054 320.861 445.162L323.138 406.607L323.438 407.211C323.711 405.889 323.95 404.715 324.568 403.507C332.425 403.446 341.081 404.323 348.808 403.108Z" /><path fill="#FDFDFD" transform="scale(0.666667 0.666667)" d="M233.926 446.313C236.938 446.026 239.866 446.175 242.881 446.341C240.088 447.28 237.063 447.911 234.395 449.138C232.598 449.965 230.736 451.216 230.062 453.168C228.71 457.087 230.566 461.118 232.28 464.611L134.812 464.314L124.523 464.287L124.507 463.387C124.458 459.701 124.524 456.419 127.388 453.679C128.248 452.856 129.266 452.421 130.443 452.289C135.424 451.73 140.63 451.828 145.641 451.828C152.682 451.829 159.723 451.874 166.764 451.951C186.508 452.165 206.251 452.324 225.995 452.488C226.515 451.807 226.341 452.101 226.697 451.41L227.331 450.2C228.759 447.649 231.306 447.057 233.926 446.313Z" /><path fill="#FD5014" transform="scale(0.666667 0.666667)" d="M124.559 471.562C126.664 470.71 130.774 471.29 133.123 471.301C140.689 471.336 148.256 471.375 155.822 471.405C177.445 471.491 199.066 471.509 220.689 471.404C220.836 474.25 219.638 477.606 220.485 480.375C220.729 481.173 220.87 481.3 221.602 481.706C223.565 482.795 227.011 482.924 229.225 482.995C235.738 483.203 238.636 481.92 241.666 476.008C242.693 474.004 242.972 473.025 245.165 472.278L245.621 472.875C245.242 476.178 243.944 479.909 241.653 482.391C238.035 486.311 233.669 487.207 228.604 487.529C203.492 487.359 178.373 487.505 153.261 487.528C146.577 487.534 139.893 487.539 133.209 487.532C128.935 487.528 124.439 487.816 120.235 486.956L119.625 486.825C116.209 486.124 113.426 484.696 111.154 481.997C109.542 480.084 106.311 474.535 106.586 471.938L107.438 471.773C110.062 473.5 110.486 477.37 112.949 479.554C115.436 481.761 119.345 482.182 122.537 481.815C123.548 481.699 124.706 481.423 125.298 480.527C126.545 478.638 124.948 473.809 124.559 471.562Z" /><path fill="#FD5014" transform="scale(0.666667 0.666667)" d="M622.747 452.28C624.518 452.223 626.493 452.061 628.203 452.58C635.874 454.906 642.822 462.944 646.514 469.826C650.833 477.875 654.01 487.751 653.361 496.959C653.107 500.557 652.071 504.206 651.023 507.645C648.523 515.849 644.671 524.361 636.817 528.577L636.256 528.798C633.541 529.822 630.409 529.911 627.75 528.665C618.6 524.374 612.826 512.515 609.667 503.464C605.495 491.508 604.852 475.477 610.589 463.909C613.274 458.494 616.879 454.213 622.747 452.28Z" /><path fill="#010101" transform="scale(0.666667 0.666667)" d="M623.307 456.422C626.687 456.091 629.672 457.163 632.463 459.051C639.366 463.721 644.045 471.768 645.425 479.917C647.365 491.377 645.573 504.489 638.688 514.125C636.621 517.016 633.641 519.707 630 520.216C627.943 520.504 625.467 520.331 623.812 518.947C621.972 517.406 620.843 515.014 619.915 512.843C617.723 507.711 616.601 503.309 616.042 497.758C617.533 500.965 618.921 504.286 620.857 507.254C621.828 508.35 622.788 509.275 624.042 510.049C625.444 510.916 626.933 511.325 628.561 510.879C631.749 510.007 634.379 506.449 635.971 503.706C640.156 496.496 641.548 487.31 639.365 479.244C638.063 474.432 634.877 469.253 630.331 466.84C627.485 465.33 623.627 464.74 620.546 465.906C615.343 467.876 613.799 478.37 611.654 483.071C612.026 477.515 612.416 472.079 614.377 466.807C616.241 461.797 618.331 458.659 623.307 456.422Z" /><path fill="#D0D0D0" transform="scale(0.666667 0.666667)" d="M464.315 515.438C466.533 514.935 469.35 515.299 471.664 515.308C476.969 515.331 482.273 515.356 487.578 515.376C506.562 515.446 525.548 515.343 544.532 515.333C552.328 515.329 560.123 515.32 567.918 515.329C570.988 515.333 575.219 514.789 578.104 515.581L578.62 518.483C580.083 526.283 583.436 532.789 590.044 537.327C588.581 537.699 586.491 537.462 584.958 537.474C581.09 537.507 577.221 537.536 573.352 537.566L447.534 538.36L452.189 535.745C460.072 530.878 462.296 523.985 464.315 515.438Z" /><path fill="#FD5014" transform="scale(0.666667 0.666667)" d="M385.576 451.985C387.314 451.872 389.271 452.114 390.919 452.679C400.202 455.855 406.528 465.469 410.679 473.83C415.912 484.37 417.015 497.49 413.117 508.688C409.745 518.374 404.741 526.985 395.242 531.576L394.89 531.675L394.304 531.822L393.464 532.034C390.161 532.758 386.375 531.435 383.629 529.607C373.437 522.82 368.198 506.761 366.16 495.351C364.076 483.676 365.597 470.191 372.556 460.323C375.867 455.629 379.899 452.999 385.576 451.985Z" /><path fill="#010101" transform="scale(0.666667 0.666667)" d="M385.647 456.104C387.925 456.237 389.829 456.606 391.868 457.679C398.884 461.372 403.347 469.15 405.446 476.543C408.758 488.204 406.175 501.77 400.242 512.194C397.743 516.585 394.183 520.614 389.051 521.81C386.475 522.41 384.101 522.04 381.93 520.503C376.214 516.456 373.541 506.579 372.475 499.949C373.735 502.366 374.939 505.032 376.541 507.234C379.222 510.919 381.962 512.523 386.361 513.292C388.191 513.069 389.78 512.481 391.199 511.267C397.313 506.042 400.815 497.106 401.392 489.252C401.893 482.441 399.922 474.372 395.319 469.171C392.916 466.457 389.396 464.735 385.749 464.651C379.142 464.5 376.255 468.792 373.461 473.962C372.309 476.094 371.099 478.347 370.536 480.722C370.15 482.354 370.302 486.936 369.375 487.858C368.507 486.49 369.067 483.291 369.331 481.71C369.812 478.836 370.848 476.046 371.779 473.29C373.523 468.131 375.669 461.659 380.372 458.397L380.84 458.086C382.423 457.02 383.822 456.579 385.647 456.104Z" /><path fill="#D0D0D0" transform="scale(0.666667 0.666667)" d="M210.555 511.688C213.029 511.005 216.653 511.478 219.239 511.478C226.376 511.479 233.514 511.477 240.651 511.479C270.758 511.486 300.873 511.309 330.979 511.561C331.409 513.511 331.883 515.39 332.64 517.243C335.306 523.766 339.829 530.449 345.836 534.309C348.302 535.894 351.142 536.984 353.838 538.12L332.438 537.784L189.272 537.868L193.95 535.383C203.1 529.904 207.999 521.804 210.555 511.688Z" /><path fill="#FDFDFD" transform="scale(0.666667 0.666667)" d="M325.917 369.333L332.534 370.533C332.99 373.123 335.615 375.01 337.426 376.813C338.067 377.451 338.806 377.825 338.812 378.75C339.514 379.336 339.736 379.446 340.123 380.252L340.684 381C341.149 381.653 341.432 381.888 341.438 382.691L341.766 383.008C342.508 383.75 342.932 384.054 342.938 385.125L343.299 385.471C344.074 386.25 343.366 385.474 343.873 386.344L344.434 387L344.437 387.566L344.998 388.594L345.188 389.066L345.745 389.599C346.276 390.094 346.468 390.379 346.619 391.11L346.757 391.182C348.105 395.115 348.59 398.981 348.808 403.108C341.081 404.323 332.425 403.446 324.568 403.507C323.95 404.715 323.711 405.889 323.438 407.211L323.138 406.607C322.887 405.252 323.012 404.447 321.938 403.54L312.444 403.437L311.533 397.536C310.975 391.297 304.376 383.552 299.742 379.714C296.162 376.749 293.036 374.94 288.38 374.288C295.828 377.926 300.496 381.133 304.502 388.688L304.264 389.102L302.812 388.514L302.062 388.949C301.845 390.478 301.768 391.522 302.173 393.022C303.517 394.306 304.707 393.694 306.188 394.235C308.042 394.913 308.201 399.157 308.235 400.809C308.413 409.483 305.48 418.439 299.302 424.688C293.993 430.058 287.21 431.987 279.817 431.984C274.505 431.982 268.282 429.985 264.44 426.215C260.879 422.722 258.549 417.632 257.699 412.803C257.52 411.788 257.158 408.308 256.359 407.908C255.376 406.242 255.418 404.581 255.468 402.715C255.722 393.277 259.913 385.611 266.77 379.267C275.532 371.161 287.638 371.19 298.805 371.644L301.852 371.343L302.248 371.248L303 371.059C304.055 370.506 305.172 370.685 306.375 370.684C307.079 370.216 307.083 370.312 307.875 370.309C308.939 369.602 311.067 369.935 312.375 369.934C313.171 369.405 313.697 369.561 314.625 369.559C315.98 370.462 321.104 369.917 322.875 369.934C323.806 369.315 324.823 369.411 325.917 369.333Z" /><path fill="#4E7885" transform="scale(0.666667 0.666667)" d="M289.227 427.267L289.779 426.975C295.603 423.859 301.518 416.401 303.35 410.062C304.503 406.074 304.413 402.172 304.197 398.062L304.471 398.062C306.247 401.698 305.182 409.714 303.844 413.501C301.664 419.674 297.641 425.025 291.608 427.798C290.979 428.087 291.208 428.018 290.596 428.08C290.099 427.593 289.861 427.505 289.227 427.267Z" /><path fill="#010101" transform="scale(0.666667 0.666667)" d="M290.596 428.08L290.14 428.241C283.721 430.46 276.692 430.673 270.536 427.557C265.56 425.037 262.69 420.75 260.945 415.593C258.389 408.042 258.788 398.739 262.395 391.58C265.139 386.134 269.871 380.995 275.824 379.119C280.283 377.715 285.335 377.79 289.514 380.028C293.898 382.376 295.958 386.011 297.328 390.614L292.427 387.453C287.864 384.961 283.28 385.131 278.438 386.63C273.478 388.165 269.494 391.771 267.144 396.365C264.392 401.743 264.022 407.891 265.831 413.625C267.492 418.887 271.2 423.217 276.133 425.686C278.209 426.725 282.332 428.46 284.625 428.348C286.179 428.272 287.754 427.733 289.227 427.267C289.861 427.505 290.099 427.593 290.596 428.08Z" /><path fill="#FD6E23" transform="scale(0.666667 0.666667)" d="M325.917 369.333L332.534 370.533C332.99 373.123 335.615 375.01 337.426 376.813C338.067 377.451 338.806 377.825 338.812 378.75C339.514 379.336 339.736 379.446 340.123 380.252L340.684 381C341.149 381.653 341.432 381.888 341.438 382.691L341.766 383.008C342.508 383.75 342.932 384.054 342.938 385.125L343.299 385.471C344.074 386.25 343.366 385.474 343.873 386.344L344.434 387L344.437 387.566L344.998 388.594L345.188 389.066L345.745 389.599C346.276 390.094 346.468 390.379 346.619 391.11L346.757 391.182C348.105 395.115 348.59 398.981 348.808 403.108C341.081 404.323 332.425 403.446 324.568 403.507C325.593 397.215 321.441 386.559 317.941 381.375C313.456 374.734 306.214 373.016 298.805 371.644L301.852 371.343L302.248 371.248L303 371.059C304.055 370.506 305.172 370.685 306.375 370.684C307.079 370.216 307.083 370.312 307.875 370.309C308.939 369.602 311.067 369.935 312.375 369.934C313.171 369.405 313.697 369.561 314.625 369.559C315.98 370.462 321.104 369.917 322.875 369.934C323.806 369.315 324.823 369.411 325.917 369.333Z" /><path fill="#FD5014" transform="scale(0.666667 0.666667)" d="M502.6 303.56C507.056 303.079 512.572 304.244 517.1 304.689C528.782 305.838 540.594 306.65 552.145 308.816C558.368 309.982 564.192 311.717 570.287 313.338C571.382 313.23 572.039 312.952 573 313.5C573.442 313.752 573.905 313.859 574.395 313.957C575.063 314.091 574.749 314.008 575.432 314.35C576.117 314.692 576.38 314.542 577.031 314.719C577.641 314.884 578.198 315.232 578.83 315.404C579.467 315.578 579.912 315.842 580.5 316.125L581.057 316.366C582.219 316.906 583.594 318.489 584.156 319.594L584.625 320.25L587.256 324.182C587.929 325.191 588.355 326.311 589.113 327.258C589.56 327.816 589.806 328.356 590.156 328.969C590.392 329.382 590.686 329.676 590.999 330.029C591.421 330.506 591.545 330.866 591.844 331.406L595.506 337.342C595.824 337.819 596.114 338.149 596.531 338.531C596.268 336.689 594.6 334.933 593.719 333.281C593.261 332.423 592.743 331.697 592.138 330.936L592.286 329.541L609.874 359.704C612.126 365.088 615.491 369.439 613.08 375.562C611.189 380.365 606.806 384.088 602.115 386.065C598.914 387.414 592.708 388.496 589.309 387.145L589.741 386.73L580.968 387.945L579.417 386.976L569.689 386.709L569.346 387.187C574.651 387.703 577.619 391.368 580.845 395.272C582.618 397.417 586.436 402.168 586.5 405.011C588.455 412.828 588.105 420.877 587.911 428.859C587.75 435.532 587.644 442.235 587.217 448.897C586.806 455.295 586.062 461.706 585.73 468.099L583.023 492.886L580.356 493.171C556.458 493.721 532.442 493.194 508.532 493.136C501.613 493.119 494.694 493.117 487.776 493.109C484.186 493.105 480.26 493.457 476.733 492.85L475.089 492.855C469.862 492.899 464.634 492.937 459.407 493.022C456.738 493.066 453.588 492.82 451.003 493.466C450.618 493.488 449.887 493.451 449.573 493.167C448.237 491.956 447.077 486.403 446.477 484.481C443.654 475.442 440.343 466.434 436.776 457.664C431.633 445.017 424.935 429.308 413.343 421.247C406.515 416.499 398.221 415.927 390.236 417.443C380.833 419.229 372.036 426.28 366.774 434.062C364.041 438.105 361.96 442.543 359.243 446.602C357.577 450.804 354.547 454.99 352.136 458.818C348.133 465.173 344.297 471.624 340.109 477.863C338.255 480.625 336.027 483.111 334.158 485.88C340.891 481.382 344.606 475.088 348.842 468.348C351.995 463.333 355.144 458.302 358.411 453.36C362.268 447.526 366.389 441.978 372.78 438.785C377.94 436.206 384.434 436.503 389.785 438.332C398.821 441.421 406.104 449.416 410.238 457.801L400.047 448.343C395.569 444.856 390.051 442.299 384.243 443.101L383.625 443.196C372.054 444.911 364.683 459.303 358.206 467.933C355.46 471.593 352.427 475.027 348.976 478.041C345.091 481.435 340.795 484.896 335.998 486.913C333.471 487.976 330.852 488.621 328.32 489.751C324.313 491.538 320.654 493.565 316.471 494.974C319.303 490.276 323.337 486.494 326.986 482.435C336.771 471.55 343.818 459.769 347.213 445.427C348.644 439.669 349.028 433.52 349.517 427.617C350.195 419.417 350.735 411.323 350.709 403.09C350.2 399.542 349.538 395.977 348.317 392.598L347.898 391.297L347.817 390.938L346.757 391.182L346.619 391.11C346.468 390.379 346.276 390.094 345.745 389.599L345.188 389.066L344.998 388.594L344.437 387.566L344.434 387L343.873 386.344C343.366 385.474 344.074 386.25 343.299 385.471L342.938 385.125C342.932 384.054 342.508 383.75 341.766 383.008L341.438 382.691C341.432 381.888 341.149 381.653 340.684 381L340.123 380.252C339.736 379.446 339.514 379.336 338.812 378.75C338.806 377.825 338.067 377.451 337.426 376.813C335.615 375.01 332.99 373.123 332.534 370.533L475.125 377.659C475.659 376.968 475.481 377.364 475.631 376.458C475.619 372.952 476.803 369.35 477.761 366.008C479.068 361.448 480.403 356.898 481.619 352.312C484.455 341.624 487.114 330.921 490.145 320.281C491.318 316.164 492.062 311.967 493.999 308.117C496.81 307.623 499.474 307.592 502.323 307.638L502.669 312.357L503.062 312.119C503.274 309.213 502.707 306.462 502.6 303.56Z" /><path fill="#010101" transform="scale(0.666667 0.666667)" d="M475.089 492.855L475.825 471.591C476.33 475.723 475.285 480.398 476.25 484.312L476.361 485.066L476.902 485.162L476.733 492.85L475.089 492.855Z" /><path fill="#1B1818" transform="scale(0.666667 0.666667)" d="M584.23 462.672L584.352 467.171C584.341 467.762 584.553 468.058 584.83 468.555L585.312 468.102L585.73 468.099L583.023 492.886L580.356 493.171L584.23 462.672Z" /><path fill="#1B1818" transform="scale(0.666667 0.666667)" d="M475.825 471.591L475.508 401.919C477.34 406.363 477.426 410.985 477.598 415.735C477.836 422.314 477.739 428.922 477.733 435.507C477.719 452.059 477.351 468.616 476.902 485.162L476.361 485.066L476.25 484.312C475.285 480.398 476.33 475.723 475.825 471.591Z" /><path fill="#010101" transform="scale(0.666667 0.666667)" d="M583.056 403.495L583.815 403.5L584.438 403.178C585.297 403.742 585.837 404.226 586.5 405.011C588.455 412.828 588.105 420.877 587.911 428.859C587.75 435.532 587.644 442.235 587.217 448.897C586.806 455.295 586.062 461.706 585.73 468.099L585.312 468.102L584.83 468.555C584.553 468.058 584.341 467.762 584.352 467.171L584.23 462.672C584.066 461.642 584.386 460.078 584.458 459.018C584.628 456.524 584.807 454.032 584.977 451.539C585.557 442.995 588.03 410.374 583.709 404.812C583.616 405.287 583.569 405.628 583.384 406.091C582.364 408.644 576.97 407.834 574.688 408.829C574.112 409.079 573.633 409.303 573 409.405C569.555 409.961 565.153 409.236 562.336 407.132C561.101 406.21 560.691 405.287 560.496 403.8L566.216 403.868C568.465 404.179 571.531 404.523 573.75 404.164C574.635 404.021 575.211 403.534 576.186 403.439C578.448 403.217 580.791 403.381 583.056 403.495Z" /><path fill="#FDFDFD" transform="scale(0.666667 0.666667)" d="M359.243 446.602C358.617 446.212 357.191 445.61 357.021 444.893C356.7 443.54 357.208 441.85 357.512 440.508C358.938 434.202 361.895 427.688 365.669 422.438C371.186 414.761 379.826 409.249 389.185 407.78C398.652 406.293 408.327 408.711 416.028 414.426C430.564 425.211 437.134 443.216 442.779 459.715C446.107 469.442 449.248 479.671 450.656 489.881L451.003 493.466C450.618 493.488 449.887 493.451 449.573 493.167C448.237 491.956 447.077 486.403 446.477 484.481C443.654 475.442 440.343 466.434 436.776 457.664C431.633 445.017 424.935 429.308 413.343 421.247C406.515 416.499 398.221 415.927 390.236 417.443C380.833 419.229 372.036 426.28 366.774 434.062C364.041 438.105 361.96 442.543 359.243 446.602Z" /><path fill="#FE6623" transform="scale(0.666667 0.666667)" d="M332.534 370.533L475.125 377.659C475.659 376.968 475.481 377.364 475.631 376.458L476.25 377.61C477.91 377.815 479.346 377.665 480.991 377.454L481.527 376.953L481.502 376.847C485.757 375.744 491.167 376.925 495.526 377.243C496.798 377.335 498.618 377.734 499.791 377.233L500.298 378.718C502.277 379.226 505.231 378.289 507.19 377.727C508.154 377.451 508.381 377.493 509.268 377.856L508.964 378.006C503.87 380.433 497.626 381.122 492.926 384.256C491.401 385.273 490.099 386.844 488.863 388.191C493.125 387.925 513.07 385.882 515.768 383.211C516.662 382.326 516.581 379.821 516.569 378.625L561.66 385.757L562.19 386.812C564.387 387.076 567.167 387.445 569.346 387.187C574.651 387.703 577.619 391.368 580.845 395.272C582.618 397.417 586.436 402.168 586.5 405.011C585.837 404.226 585.297 403.742 584.438 403.178L583.815 403.5L583.056 403.495C580.791 403.381 578.448 403.217 576.186 403.439C575.211 403.534 574.635 404.021 573.75 404.164C571.531 404.523 568.465 404.179 566.216 403.868L560.496 403.8C557.545 403.132 553.266 403.845 550.12 403.789C537.992 403.572 525.881 403.284 513.75 403.147C459.487 402.534 404.955 401.404 350.709 403.09C350.2 399.542 349.538 395.977 348.317 392.598L347.898 391.297L347.817 390.938L346.757 391.182L346.619 391.11C346.468 390.379 346.276 390.094 345.745 389.599L345.188 389.066L344.998 388.594L344.437 387.566L344.434 387L343.873 386.344C343.366 385.474 344.074 386.25 343.299 385.471L342.938 385.125C342.932 384.054 342.508 383.75 341.766 383.008L341.438 382.691C341.432 381.888 341.149 381.653 340.684 381L340.123 380.252C339.736 379.446 339.514 379.336 338.812 378.75C338.806 377.825 338.067 377.451 337.426 376.813C335.615 375.01 332.99 373.123 332.534 370.533Z" /><path fill="#FDFDFD" transform="scale(0.666667 0.666667)" d="M559.061 399.642L558.859 398.72C560.072 398.003 561.305 398.161 562.688 398.115C566.161 398.002 570.423 397.744 573.787 398.598L574.875 398.931L575.558 399.14C577.778 399.826 581.602 401.195 582.899 403.184L583.056 403.495C580.791 403.381 578.448 403.217 576.186 403.439C575.211 403.534 574.635 404.021 573.75 404.164C571.531 404.523 568.465 404.179 566.216 403.868C565.392 403.565 564.703 403.21 563.951 402.757C562.266 402.161 559.982 403.097 558.473 401.928L558.447 400.125L559.061 399.642Z" /><path fill="#010101" transform="scale(0.666667 0.666667)" d="M559.061 399.642C563.232 399.691 569.441 399.04 573.303 400.312C573.942 401.071 573.898 401.698 573.978 402.648C572.48 403.888 566.246 402.834 563.951 402.757C562.266 402.161 559.982 403.097 558.473 401.928L558.447 400.125L559.061 399.642Z" /><path fill="#02070C" transform="scale(0.666667 0.666667)" d="M502.6 303.56C507.056 303.079 512.572 304.244 517.1 304.689C528.782 305.838 540.594 306.65 552.145 308.816C558.368 309.982 564.192 311.717 570.287 313.338C571.382 313.23 572.039 312.952 573 313.5C573.442 313.752 573.905 313.859 574.395 313.957C575.063 314.091 574.749 314.008 575.432 314.35C576.117 314.692 576.38 314.542 577.031 314.719C577.641 314.884 578.198 315.232 578.83 315.404C579.467 315.578 579.912 315.842 580.5 316.125L581.057 316.366C582.219 316.906 583.594 318.489 584.156 319.594L584.625 320.25L587.256 324.182C587.929 325.191 588.355 326.311 589.113 327.258C589.56 327.816 589.806 328.356 590.156 328.969C590.392 329.382 590.686 329.676 590.999 330.029C591.421 330.506 591.545 330.866 591.844 331.406L595.506 337.342C595.824 337.819 596.114 338.149 596.531 338.531C596.268 336.689 594.6 334.933 593.719 333.281C593.261 332.423 592.743 331.697 592.138 330.936L592.286 329.541L609.874 359.704C612.126 365.088 615.491 369.439 613.08 375.562C611.189 380.365 606.806 384.088 602.115 386.065C598.914 387.414 592.708 388.496 589.309 387.145L589.741 386.73L580.968 387.945L579.417 386.976L569.689 386.709L569.346 387.187C567.167 387.445 564.387 387.076 562.19 386.812L561.66 385.757L516.569 378.625C516.581 379.821 516.662 382.326 515.768 383.211C513.07 385.882 493.125 387.925 488.863 388.191C490.099 386.844 491.401 385.273 492.926 384.256C497.626 381.122 503.87 380.433 508.964 378.006L509.268 377.856C508.381 377.493 508.154 377.451 507.19 377.727C505.231 378.289 502.277 379.226 500.298 378.718L499.791 377.233C498.618 377.734 496.798 377.335 495.526 377.243C491.167 376.925 485.757 375.744 481.502 376.847L481.527 376.953L480.991 377.454C479.346 377.665 477.91 377.815 476.25 377.61L475.631 376.458C475.619 372.952 476.803 369.35 477.761 366.008C479.068 361.448 480.403 356.898 481.619 352.312C484.455 341.624 487.114 330.921 490.145 320.281C491.318 316.164 492.062 311.967 493.999 308.117C496.81 307.623 499.474 307.592 502.323 307.638L502.669 312.357L503.062 312.119C503.274 309.213 502.707 306.462 502.6 303.56Z" /><path fill="#FDFDFD" transform="scale(0.666667 0.666667)" d="M499.791 377.233C498.795 374.091 498.245 371.488 498.452 368.142C501.364 364.278 504.304 361.921 509.238 361.21C511.781 360.843 514.284 360.697 516.392 362.393C518.523 364.106 520.006 366.614 520.153 369.375C520.249 371.174 519.398 372.746 518.203 374.041C515.974 376.458 512.256 376.817 509.268 377.856C508.381 377.493 508.154 377.451 507.19 377.727C505.231 378.289 502.277 379.226 500.298 378.718L499.791 377.233Z" /><path fill="#FDFDFD" transform="scale(0.666667 0.666667)" d="M502.6 303.56C507.056 303.079 512.572 304.244 517.1 304.689C528.782 305.838 540.594 306.65 552.145 308.816C558.368 309.982 564.192 311.717 570.287 313.338C571.382 313.23 572.039 312.952 573 313.5C573.442 313.752 573.905 313.859 574.395 313.957C575.063 314.091 574.749 314.008 575.432 314.35C576.117 314.692 576.38 314.542 577.031 314.719C577.641 314.884 578.198 315.232 578.83 315.404C579.467 315.578 579.912 315.842 580.5 316.125L581.057 316.366C582.219 316.906 583.594 318.489 584.156 319.594L584.625 320.25L587.256 324.182C587.929 325.191 588.355 326.311 589.113 327.258C589.56 327.816 589.806 328.356 590.156 328.969C590.392 329.382 590.686 329.676 590.999 330.029C591.421 330.506 591.545 330.866 591.844 331.406L595.506 337.342C595.824 337.819 596.114 338.149 596.531 338.531C596.268 336.689 594.6 334.933 593.719 333.281C593.261 332.423 592.743 331.697 592.138 330.936L592.286 329.541L609.874 359.704C612.126 365.088 615.491 369.439 613.08 375.562C611.189 380.365 606.806 384.088 602.115 386.065C598.914 387.414 592.708 388.496 589.309 387.145L589.741 386.73L580.968 387.945L579.417 386.976C584.744 386.389 590.021 384.838 594.979 382.821C599.619 380.933 607.545 377.236 609.393 372.141C610.43 369.281 607.446 363.712 606.107 361.182C600.344 350.296 593.759 339.651 587.172 329.241C585.303 326.287 583.178 321.912 580.584 319.67C579.566 318.791 577.295 318.43 575.987 318.07C572.555 317.126 569.152 316.124 565.749 315.081L566.639 385.5C567.46 386.62 568.356 386.464 569.689 386.709L569.346 387.187C567.167 387.445 564.387 387.076 562.19 386.812L561.66 385.757L561.704 313.239L507.374 306.971C508.105 314.498 509.267 322.011 510.12 329.528C511.163 338.716 511.769 348.456 514.099 357.401L508.611 357.517L502.43 313.209C500.357 313.623 498.474 314.208 496.492 314.922C494.829 316.831 493.984 318.882 493.127 321.229C488.798 333.082 486.069 345.496 482.868 357.682C481.657 362.29 480.13 366.98 479.548 371.722C479.467 372.377 479.155 373.83 479.288 374.438C479.396 374.93 479.713 375.352 479.926 375.809L481.502 376.847L481.527 376.953L480.991 377.454C479.346 377.665 477.91 377.815 476.25 377.61L475.631 376.458C475.619 372.952 476.803 369.35 477.761 366.008C479.068 361.448 480.403 356.898 481.619 352.312C484.455 341.624 487.114 330.921 490.145 320.281C491.318 316.164 492.062 311.967 493.999 308.117C496.81 307.623 499.474 307.592 502.323 307.638L502.669 312.357L503.062 312.119C503.274 309.213 502.707 306.462 502.6 303.56Z" /><path fill="#010101" transform="scale(0.666667 0.666667)" d="M570.287 313.338C571.382 313.23 572.039 312.952 573 313.5C573.442 313.752 573.905 313.859 574.395 313.957C575.063 314.091 574.749 314.008 575.432 314.35C576.117 314.692 576.38 314.542 577.031 314.719C577.641 314.884 578.198 315.232 578.83 315.404C579.467 315.578 579.912 315.842 580.5 316.125L581.057 316.366C582.219 316.906 583.594 318.489 584.156 319.594L584.625 320.25L587.256 324.182C587.929 325.191 588.355 326.311 589.113 327.258C589.56 327.816 589.806 328.356 590.156 328.969C590.392 329.382 590.686 329.676 590.999 330.029C591.421 330.506 591.545 330.866 591.844 331.406L595.506 337.342C595.824 337.819 596.114 338.149 596.531 338.531C596.268 336.689 594.6 334.933 593.719 333.281C593.261 332.423 592.743 331.697 592.138 330.936L592.286 329.541L609.874 359.704C612.126 365.088 615.491 369.439 613.08 375.562C611.189 380.365 606.806 384.088 602.115 386.065C598.914 387.414 592.708 388.496 589.309 387.145L589.741 386.73C593.338 386.22 596.811 385.255 600.096 383.676C604.445 381.586 610.035 377.595 611.505 372.808C612.599 369.244 610.716 365.4 609.098 362.258C603.204 350.816 596.111 339.708 589.222 328.838C587.009 325.347 584.619 320.351 581.541 317.652C579.029 315.45 573.445 314.363 570.287 313.338Z" /><path fill="#02070C" transform="scale(0.666667 0.666667)" d="M569.689 386.709C568.356 386.464 567.46 386.62 566.639 385.5L565.749 315.081C569.152 316.124 572.555 317.126 575.987 318.07C577.295 318.43 579.566 318.791 580.584 319.67C583.178 321.912 585.303 326.287 587.172 329.241C593.759 339.651 600.344 350.296 606.107 361.182C607.446 363.712 610.43 369.281 609.393 372.141C607.545 377.236 599.619 380.933 594.979 382.821C590.021 384.838 584.744 386.389 579.417 386.976L569.689 386.709Z" /></svg>