<?xml version="1.0" encoding="utf-8"?><svg width="851" height="315" viewBox="0 0 851 315" preserveAspectRatio="xMidYMid meet" xmlns="http://www.w3.org/2000/svg"><g transform="translate(0.000000,315.000000) scale(0.100000,-0.100000)" fill="#000000" stroke="none"><path d="M0 1575 l0 -1575 1213 0 c1105 1 1209 2 1182 16 -392 204 -694 550 -843 964 -66 185 -91 317 -99 525 -13 358 89 714 289 1006 64 94 177 223 186 214 4 -3 1 -9 -6 -14 -6 -4 -14 -24 -17 -46 -2 -21 -10 -42 -16 -46 -6 -4 -9 -11 -5 -17 5 -8 -27 -85 -65 -154 -13 -25 -12 -28 14 -29 l22 0 -22 -11 c-28 -14 -37 -41 -23 -68 11 -20 -3 -30 -15 -10 -12 20 -24 9 -36 -32 -7 -24 -20 -54 -29 -68 -9 -14 -24 -52 -34 -85 -10 -33 -21 -69 -26 -80 -9 -22 -28 -96 -34 -135 -2 -14 -5 -29 -6 -35 -1 -5 -1 -12 0 -15 5 -15 4 -73 -2 -77 -5 -2 -8 -12 -8 -21 0 -15 2 -15 10 -2 13 20 13 8 -1 -27 -11 -29 -23 -108 -22 -153 0 -79 7 -150 14 -150 21 0 24 -2 31 -21 4 -11 10 -48 12 -82 5 -60 5 -61 -9 -32 -8 17 -12 40 -10 52 4 19 -10 41 -20 31 -6 -5 23 -144 34 -165 5 -10 12 -26 15 -35 3 -10 11 -15 19 -12 9 3 19 -6 27 -25 7 -17 18 -31 24 -31 16 0 53 -43 49 -56 -2 -5 6 -10 17 -11 14 -1 18 2 13 10 -13 21 -13 47 0 47 15 0 39 -49 30 -63 -3 -5 -1 -12 6 -16 10 -6 19 -39 38 -134 6 -31 -7 -35 -49 -13 l-28 15 0 -43 c0 -43 28 -91 53 -91 7 0 13 -9 15 -20 5 -31 24 -65 34 -59 12 8 10 -10 -4 -24 -9 -9 -9 -15 0 -24 9 -9 12 -9 12 0 0 18 27 14 42 -5 12 -17 51 -43 63 -43 2 0 2 15 -1 33 -5 29 -4 30 9 15 8 -10 17 -15 20 -11 4 3 19 -6 33 -21 32 -32 42 -28 19 8 -17 25 -17 26 3 26 26 0 36 -15 38 -56 2 -27 -1 -31 -17 -27 -13 4 -19 0 -21 -13 0 -11 -2 -26 -2 -34 -2 -19 40 -53 55 -45 5 4 24 1 40 -6 22 -8 27 -14 17 -20 -18 -11 -6 -19 20 -12 12 3 19 9 16 14 -3 5 0 9 6 9 6 0 9 4 5 9 -3 6 -14 9 -24 8 -20 -1 -91 33 -91 44 0 11 31 20 42 13 6 -4 13 -1 17 5 5 7 14 4 29 -10 l23 -20 -6 28 c-4 15 -9 35 -11 43 -3 8 16 -9 41 -37 26 -29 54 -53 63 -53 8 0 27 -10 41 -22 14 -13 20 -16 14 -8 -32 36 11 30 65 -10 29 -21 62 -19 62 5 0 15 50 24 79 14 13 -5 25 -3 35 6 18 18 33 19 38 3 6 -17 28 0 28 23 0 10 3 19 6 19 9 0 34 -28 34 -39 0 -6 10 -7 28 -1 15 4 41 11 57 15 24 5 28 4 18 -6 -18 -18 -16 -32 2 -25 8 3 15 0 15 -7 0 -7 9 -13 20 -13 11 0 20 4 20 8 0 4 5 8 11 8 5 0 7 -5 3 -12 -5 -8 -2 -9 9 -5 9 3 19 1 23 -5 5 -7 2 -8 -6 -3 -8 5 -11 3 -8 -6 2 -8 19 -18 36 -24 20 -6 31 -15 29 -25 -1 -10 7 -16 25 -18 24 -3 27 -6 18 -23 -8 -15 -7 -19 5 -19 8 0 15 5 15 10 0 6 7 10 16 10 10 0 14 -6 10 -15 -7 -18 5 -20 23 -2 11 10 13 9 8 -5 -7 -21 5 -23 35 -7 15 8 22 8 28 -1 11 -17 61 -16 71 2 5 9 19 13 43 10 34 -4 42 -22 10 -22 -19 0 -64 -44 -64 -63 0 -9 14 -13 49 -12 27 1 49 -1 49 -4 -2 -24 5 -32 25 -30 12 2 28 0 35 -4 6 -5 12 -4 12 2 0 6 7 8 15 4 9 -3 25 3 37 13 12 11 18 14 15 8 -9 -16 36 -26 65 -15 42 15 118 23 118 12 0 -6 -7 -11 -15 -11 -8 0 -15 -4 -15 -10 0 -13 17 -13 25 0 3 6 20 10 36 10 22 0 32 6 38 24 12 29 37 40 45 19 4 -9 14 -13 26 -10 21 5 28 -9 8 -15 -9 -3 -9 -6 0 -12 7 -4 12 -2 12 4 0 6 4 9 9 5 5 -3 12 -1 16 5 3 5 1 10 -5 10 -6 0 -8 5 -4 12 5 8 11 6 20 -7 10 -13 20 -16 41 -10 l28 7 -25 10 -25 10 35 18 c19 11 46 24 60 30 14 6 35 21 47 32 13 12 40 22 70 25 26 3 67 13 90 24 24 10 51 19 62 19 10 0 26 10 34 22 l16 23 0 -23 c1 -21 2 -22 17 -8 8 9 19 16 22 16 4 0 21 12 37 27 16 16 30 27 30 25 0 -6 60 10 72 20 7 5 13 4 15 -3 3 -8 9 -6 21 5 36 37 15 -9 -32 -68 -116 -146 -322 -312 -506 -410 l-50 -26 2288 0 2287 0 0 1575 0 1575 -4255 0 -4255 0 0 -1575z m4705 1290 c-5 -46 -4 -65 4 -65 6 0 14 7 17 15 5 11 11 12 25 5 19 -11 17 -32 -8 -61 -17 -21 -7 -48 16 -42 14 3 23 -7 39 -44 50 -118 71 -268 97 -693 18 -293 36 -444 60 -490 50 -96 211 -76 360 45 59 49 60 49 68 -23 6 -46 30 -82 56 -82 19 0 28 13 103 159 68 133 86 160 142 219 60 64 108 86 186 86 77 0 149 -32 198 -88 28 -33 52 -89 52 -126 0 -34 -23 -92 -55 -140 l-34 -50 27 6 c15 4 49 16 75 27 54 22 67 44 67 111 0 50 32 181 56 228 86 172 218 69 200 -156 -8 -95 -8 -135 0 -148 3 -5 31 15 62 43 113 104 240 169 328 169 52 0 118 -30 135 -63 24 -44 9 -147 -21 -147 -4 0 -24 14 -45 30 -51 41 -107 41 -191 -1 -74 -35 -199 -141 -262 -219 -134 -169 -171 -208 -223 -234 -62 -30 -152 -35 -199 -11 -38 20 -70 83 -77 152 -5 44 -9 53 -22 47 -132 -53 -265 -72 -390 -53 -47 8 -90 14 -95 14 -5 0 -13 -13 -18 -30 -20 -63 -17 -60 -34 -44 -13 13 -13 20 0 56 14 41 14 41 -10 47 -27 7 -63 72 -64 114 0 12 -2 22 -4 22 -3 0 -27 -24 -55 -53 -73 -77 -127 -102 -223 -102 -62 0 -82 4 -105 21 -81 60 -97 131 -123 554 -33 519 -45 632 -75 689 -8 17 -15 50 -15 74 0 40 -3 45 -25 49 -14 3 -35 -2 -47 -11 -17 -12 -15 -6 9 24 29 35 31 41 18 55 -19 21 -19 100 -1 145 8 19 18 35 21 35 4 0 3 -29 0 -65z m799 46 c9 -10 14 -25 10 -35 -7 -17 -24 -22 -24 -6 0 18 -39 10 -45 -9 -3 -11 -10 -53 -14 -94 -5 -41 -12 -80 -15 -86 -13 -20 -26 -11 -26 17 0 32 -32 106 -51 118 -8 4 -23 8 -34 9 -26 0 -27 43 -2 59 16 9 24 5 53 -28 19 -22 34 -45 34 -53 0 -7 4 -13 9 -13 4 0 11 20 13 45 10 82 54 119 92 76z m-904 -111 c45 -45 19 -127 -76 -245 -31 -38 -76 -101 -101 -139 -30 -46 -48 -65 -55 -58 -17 17 24 93 101 188 73 89 88 121 77 150 -10 25 -87 12 -190 -30 -176 -73 -655 -321 -744 -386 -63 -45 -57 -61 38 -101 87 -36 104 -59 43 -59 l-38 -1 22 -18 c12 -10 106 -69 210 -131 281 -169 299 -187 310 -304 11 -124 -37 -173 -291 -299 -97 -47 -176 -93 -176 -100 0 -23 57 -103 92 -130 112 -86 251 -97 437 -37 172 57 419 209 456 281 20 37 14 61 -45 179 -26 52 -51 106 -55 120 -4 14 -16 37 -26 51 -17 24 -17 33 -8 83 7 31 15 56 18 56 8 0 141 -130 141 -137 0 -3 -16 -3 -36 0 -19 3 -34 3 -32 -1 92 -180 115 -257 103 -336 -28 -170 -300 -376 -583 -442 -92 -22 -240 -15 -303 13 -94 42 -169 140 -185 242 -4 23 -11 44 -15 47 -14 8 -90 -62 -159 -146 -126 -152 -186 -200 -249 -200 -74 0 -144 70 -163 164 -14 72 7 192 57 315 l33 84 -21 29 c-15 21 -26 27 -41 22 -49 -15 -196 -124 -303 -225 -119 -112 -208 -169 -265 -169 -16 0 -51 9 -77 21 -91 39 -128 155 -97 304 15 74 76 218 98 231 21 13 18 -8 -11 -93 -37 -110 -54 -204 -46 -255 14 -80 83 -123 159 -98 20 6 79 53 143 112 137 128 184 165 288 228 46 28 87 55 90 59 2 5 0 44 -6 88 -10 67 -9 87 5 134 32 107 119 189 200 189 44 0 66 -29 66 -85 0 -54 -11 -70 -38 -56 -33 18 -87 13 -116 -10 -65 -51 -87 -170 -41 -227 1 -1 30 5 65 14 78 20 118 13 158 -29 55 -56 65 -127 31 -206 -22 -53 -48 -72 -97 -73 -30 -1 -102 38 -102 55 0 4 -4 7 -9 7 -26 0 -91 -219 -91 -305 0 -49 4 -60 29 -86 21 -20 39 -29 63 -29 51 0 100 17 136 47 29 24 37 39 41 74 1 4 7 6 14 5 8 0 42 33 76 74 56 67 121 128 159 149 8 4 16 25 18 47 9 83 15 102 36 120 21 19 21 19 14 -9 -13 -55 -18 -117 -10 -117 11 0 279 122 370 168 96 48 97 54 32 115 -30 29 -104 81 -164 116 -169 100 -269 168 -342 236 -37 34 -75 64 -84 68 -15 5 -18 19 -18 74 1 151 61 206 435 398 160 82 318 155 450 207 87 34 165 38 195 8z m1473 -114 c-3 -15 4 -36 19 -56 29 -39 30 -110 3 -140 -21 -24 -67 -26 -85 -5 -20 24 -7 115 24 179 28 56 47 68 39 22z m-2696 -12 c3 -8 2 -21 -1 -30 -6 -15 -8 -15 -25 0 -18 17 -20 17 -29 -1 -5 -10 -12 -51 -16 -91 -7 -86 -13 -99 -74 -164 -38 -41 -220 -158 -245 -158 -23 0 4 23 80 70 47 29 110 76 140 104 60 59 68 94 34 156 -15 29 -24 35 -51 35 -59 0 -68 65 -11 73 30 5 50 -14 75 -68 11 -25 21 -38 22 -30 12 74 17 91 35 114 17 21 24 24 40 15 11 -6 23 -17 26 -25z m3156 -300 c-9 -23 -75 -57 -238 -124 -132 -53 -214 -100 -177 -100 7 0 21 -9 33 -21 16 -16 18 -23 8 -35 -15 -18 -78 -18 -85 0 -8 20 13 90 34 115 17 22 411 193 424 185 4 -3 5 -11 1 -20z m-619 -23 c26 -28 17 -56 -17 -54 -23 1 -28 -3 -37 -40 -21 -81 -42 -138 -49 -132 -3 3 -17 30 -31 58 -15 31 -36 57 -51 64 -45 22 -54 39 -35 68 9 14 23 25 30 25 20 0 53 -30 70 -64 l15 -29 16 39 c35 85 57 101 89 65z m-1876 -27 c27 -18 28 -36 4 -57 -16 -15 -19 -15 -30 3 -24 38 -152 20 -152 -22 0 -20 30 -36 125 -65 72 -22 92 -50 70 -94 -17 -31 -33 -39 -84 -39 -114 0 -264 92 -246 151 7 20 8 20 38 -9 42 -40 98 -68 176 -87 48 -13 66 -14 75 -5 15 15 -14 36 -75 54 -102 31 -144 70 -120 115 19 34 81 58 186 70 6 0 21 -6 33 -15z m517 -45 c1 -32 6 -64 14 -73 11 -13 11 -19 0 -33 -7 -10 -15 -20 -16 -22 -1 -2 -9 2 -17 8 -12 10 -20 4 -44 -32 -60 -87 -225 -217 -276 -217 -22 0 -20 9 8 39 13 15 31 38 40 52 16 25 15 27 -14 64 -34 42 -37 63 -15 105 30 58 80 75 115 40 30 -30 26 -87 -10 -155 l-30 -56 39 30 c21 17 64 58 95 92 l56 61 -31 29 c-25 24 -30 34 -25 57 9 38 52 74 85 70 25 -3 26 -6 26 -59z m1009 52 c13 -20 -29 -45 -176 -106 -87 -36 -162 -65 -168 -65 -18 0 -10 18 19 42 28 24 81 49 231 107 87 34 87 34 94 22z m-2843 -62 c9 -17 8 -23 -2 -30 -8 -5 -15 -4 -17 1 -6 16 -29 11 -37 -7 -7 -19 -35 -148 -35 -162 0 -4 11 -13 25 -19 14 -7 30 -23 37 -37 9 -21 8 -28 -7 -45 -10 -11 -30 -20 -45 -20 -54 0 -59 -25 -26 -140 17 -57 22 -185 7 -176 -4 3 -11 30 -15 60 -3 30 -15 83 -26 118 -23 74 -24 104 -6 138 9 16 11 31 5 41 -6 12 -3 24 11 42 18 23 19 28 6 71 -20 67 -43 99 -67 93 -28 -8 -52 19 -39 44 23 42 69 18 104 -55 l23 -48 7 53 c4 30 14 64 22 77 19 29 59 29 75 1z m4287 -116 c-4 -22 -12 -26 -257 -129 -146 -61 -207 -82 -214 -75 -8 8 -5 17 10 32 21 22 413 187 446 188 12 1 17 -5 15 -16z m-1490 -153 c48 -35 54 -65 22 -117 -18 -30 -22 -32 -46 -23 -54 21 -84 50 -84 82 0 37 29 88 51 88 9 0 35 -14 57 -30z m-1986 -71 c26 -17 48 -35 48 -40 0 -5 -7 -26 -15 -46 -8 -19 -15 -37 -15 -39 0 -2 20 -15 45 -30 25 -14 45 -32 45 -39 0 -7 -9 -34 -20 -60 l-20 -46 -60 33 c-65 35 -65 34 -36 100 l16 37 -45 31 c-25 17 -45 33 -45 35 0 9 44 95 49 95 2 0 26 -14 53 -31z m908 -135 c0 -7 -9 -33 -20 -59 -14 -32 -24 -44 -32 -39 -7 5 -34 23 -60 42 l-48 34 25 48 25 49 55 -32 c30 -17 55 -37 55 -43z" /><path d="M6285 1772 c-30 -45 -56 -165 -39 -182 12 -12 78 22 123 63 38 33 40 70 8 118 -33 49 -60 49 -92 1z" /><path d="M5813 1760 c-51 -12 -118 -56 -161 -106 -48 -57 -128 -188 -138 -228 l-7 -29 104 6 c75 4 121 12 164 29 157 61 275 149 275 204 0 70 -145 146 -237 124z" /><path d="M6385 1552 c-27 -26 -65 -58 -83 -72 -17 -14 -33 -35 -35 -48 -2 -12 -8 -27 -14 -33 -16 -16 -36 -1 -30 22 3 11 0 19 -6 19 -17 0 -168 -78 -189 -97 -24 -22 -23 -65 4 -98 19 -24 26 -27 64 -22 54 6 118 38 168 85 47 45 160 191 153 198 -3 3 -18 -2 -34 -12 l-28 -18 26 30 c23 25 65 94 57 94 -2 0 -25 -22 -53 -48z" /></g></svg>